SplineFontDB: 3.0
FontName: Comme-Regular
FullName: Comme Regular
FamilyName: Comme
Weight: Regular
Copyright: Digitized data Copyright (c) 2011-2014, vernon adams.
Version: 2
ItalicAngle: 0
UnderlinePosition: 0
UnderlineWidth: 0
Ascent: 760
Descent: 240
UFOAscent: 761.719
UFODescent: -271.484
LayerCount: 2
Layer: 0 0 "Back"  1
Layer: 1 0 "Fore"  0
OS2Version: 0
OS2_WeightWidthSlopeOnly: 0
OS2_UseTypoMetrics: 0
CreationTime: 1396291706
ModificationTime: 1396292043
PfmFamily: 0
TTFWeight: 400
TTFWidth: 5
LineGap: 0
VLineGap: 0
OS2TypoAscent: 800
OS2TypoAOffset: 0
OS2TypoDescent: 1167
OS2TypoDOffset: 0
OS2TypoLinegap: 0
OS2WinAscent: 1167
OS2WinAOffset: 0
OS2WinDescent: 250
OS2WinDOffset: 0
HheadAscent: 0
HheadAOffset: 1
HheadDescent: 0
HheadDOffset: 1
OS2Vendor: 'NeWT'
Lookup: 4 0 1 "ligaStandardLigatureslookup0"  {"ligaStandardLigatureslookup0 subtable"  } ['liga' ('latn' <'dflt' > 'grek' <'dflt' > 'DFLT' <'dflt' > ) ]
Lookup: 4 0 0 "fracDiagonalFractionslookup11"  {"fracDiagonalFractionslookup11 subtable"  } ['frac' ('latn' <'dflt' 'CAT ' 'MOL ' 'ROM ' 'TRK ' > 'grek' <'dflt' > 'DFLT' <'dflt' > ) ]
Lookup: 6 0 0 "ordnOrdinalslookup12"  {"ordnOrdinalslookup12 contextual 0"  "ordnOrdinalslookup12 contextual 1"  } ['ordn' ('latn' <'dflt' 'CAT ' 'MOL ' 'ROM ' 'TRK ' > 'grek' <'dflt' > 'DFLT' <'dflt' > ) ]
Lookup: 1 0 0 "Single Substitution lookup 3"  {"Single Substitution lookup 3 subtable"  } []
Lookup: 1 0 0 "Single Substitution lookup 4"  {"Single Substitution lookup 4 subtable"  } []
Lookup: 4 0 0 "dligDiscretionaryLigatureslooku"  {"dligDiscretionaryLigatureslooku subtable"  } ['dlig' ('latn' <'dflt' 'CAT ' 'MOL ' 'ROM ' 'TRK ' > 'grek' <'dflt' > 'DFLT' <'dflt' > ) ]
MarkAttachClasses: 1
DEI: 91125
ChainSub2: coverage "ordnOrdinalslookup12 contextual 1"  0 0 0 1
 1 1 0
  Coverage: 3 O o
  BCoverage: 49 zero one two three four five six seven eight nine
 1
  SeqLookup: 0 "Single Substitution lookup 4" 
EndFPST

StartChar: A
Encoding: 65 65 0
Width: 692
VWidth: 0
GlyphClass: 2
Flags: HW
PickledData: "(dp1
S'org.pippin.gimp.org.kernagic'
p2
(dp3
S'lstem'
p4
I0
sS'rstem'
p5
I0
ssS'com.typemytype.robofont.layerData'
p6
(dp7
sS'org.robofab.postScriptHintData'
p8
(dp9
s."
AnchorPoint: "top" 345 711 basechar 0
AnchorPoint: "bot" 346 0 basechar 0
LayerCount: 2
Fore
SplineSet
297 711 m 257
 31 0 l 257
 125 0 l 257
 206 221 l 257
 486 221 l 257
 568 0 l 257
 662 0 l 257
 394 711 l 257
 297 711 l 257
228 287 m 257
 346 619 l 257
 464 287 l 257
 228 287 l 257
EndSplineSet
Substitution2: "Single Substitution lookup 3 subtable" ordfeminine
EndChar

StartChar: AE
Encoding: 198 198 1
Width: 784
VWidth: 0
GlyphClass: 2
Flags: HW
PickledData: "(dp1
S'org.pippin.gimp.org.kernagic'
p2
(dp3
S'lstem'
p4
I0
sS'rstem'
p5
I0
ssS'com.typemytype.robofont.layerData'
p6
(dp7
sS'org.robofab.postScriptHintData'
p8
(dp9
s."
LayerCount: 2
Fore
SplineSet
381 291 m 257
 206 291 l 257
 381 630 l 257
 381 291 l 257
333 711 m 257
 -46 0 l 257
 54 0 l 257
 173 226 l 257
 381 226 l 257
 381 0 l 257
 758 0 l 257
 764 72 l 257
 469 72 l 257
 469 336 l 257
 725 336 l 257
 725 407 l 257
 469 407 l 257
 469 640 l 257
 753 640 l 257
 756 711 l 257
 333 711 l 257
EndSplineSet
EndChar

StartChar: B
Encoding: 66 66 13
Width: 670
VWidth: 0
GlyphClass: 2
Flags: HW
PickledData: "(dp1
S'org.pippin.gimp.org.kernagic'
p2
(dp3
S'lstem'
p4
I0
sS'rstem'
p5
I0
ssS'com.typemytype.robofont.layerData'
p6
(dp7
sS'org.robofab.postScriptHintData'
p8
(dp9
s."
AnchorPoint: "top" 321 711 basechar 0
LayerCount: 2
Fore
SplineSet
272 -4 m 256
 511 -4 606 59 606 211 c 256
 606 299 565 361 460 386 c 257
 550 415 581 471 581 536 c 256
 581 614 564 715 304 715 c 256
 248 715 180 710 99 700 c 257
 99 4 l 257
 163 -1 221 -4 272 -4 c 256
194 642 m 257
 237 646 275 648 308 648 c 256
 449 648 494 609 494 530 c 256
 494 434 416 416 326 416 c 258
 194 416 l 257
 194 642 l 257
194 350 m 257
 321 350 l 258
 454 350 512 310 512 208 c 256
 512 129 496 66 288 66 c 256
 260 66 228 68 194 70 c 257
 194 350 l 257
EndSplineSet
EndChar

StartChar: C
Encoding: 67 67 14
Width: 699
VWidth: 0
GlyphClass: 2
Flags: HW
PickledData: "(dp1
S'org.pippin.gimp.org.kernagic'
p2
(dp3
S'lstem'
p4
I0
sS'rstem'
p5
I0
ssS'com.typemytype.robofont.layerData'
p6
(dp7
sS'org.robofab.postScriptHintData'
p8
(dp9
s."
AnchorPoint: "top" 378 711 basechar 0
AnchorPoint: "bot" 386 0 basechar 0
LayerCount: 2
Fore
SplineSet
655 536 m 257
 629 661 509 722 391 722 c 256
 201 722 74 588 74 356 c 256
 74 124 201 -10 391 -10 c 256
 510 -10 631 51 657 176 c 257
 588 201 l 257
 581 201 l 257
 563 123 486 65 397 65 c 256
 261 65 171 162 171 356 c 256
 171 550 260 646 397 646 c 256
 486 646 561 590 579 511 c 257
 586 511 l 257
 655 536 l 257
EndSplineSet
EndChar

StartChar: D
Encoding: 68 68 20
Width: 732
VWidth: 0
GlyphClass: 2
Flags: HW
PickledData: "(dp1
S'org.pippin.gimp.org.kernagic'
p2
(dp3
S'lstem'
p4
I0
sS'rstem'
p5
I0
ssS'com.typemytype.robofont.layerData'
p6
(dp7
sS'com.fontlab.hintData'
p8
(dp9
S'vhints'
p10
((dp11
S'position'
p12
I1280
sS'width'
p13
I122
stp14
sS'hhints'
p15
((dp16
g12
I0
sg13
I94
s(dp17
g12
I1355
sg13
I94
stp18
ssS'org.robofab.postScriptHintData'
p19
(dp20
s."
HStem: 0 46 662 46
VStem: 625 60
AnchorPoint: "top" 362 711 basechar 0
AnchorPoint: "bot" 380 -0 basechar 0
LayerCount: 2
Fore
SplineSet
99 5 m 257
 153 -2 204 -5 249 -5 c 256
 556 -5 658 145 658 364 c 256
 658 574 587 714 284 714 c 256
 230 714 168 709 99 700 c 257
 99 5 l 257
194 66 m 257
 194 641 l 257
 230 645 262 647 292 647 c 256
 514 647 563 536 563 361 c 256
 563 187 506 62 273 62 c 256
 249 62 222 63 194 66 c 257
EndSplineSet
EndChar

StartChar: uni0394
Encoding: 916 916 23
Width: 651
VWidth: 0
GlyphClass: 2
Flags: HW
PickledData: "(dp1
S'org.pippin.gimp.org.kernagic'
p2
(dp3
S'lstem'
p4
I0
sS'rstem'
p5
I0
ssS'com.typemytype.robofont.layerData'
p6
(dp7
S'b'
(dp8
S'name'
p9
S'Delta'
p10
sS'lib'
p11
(dp12
sS'unicodes'
p13
(tsS'width'
p14
I1334
sS'contours'
p15
(tsS'components'
p16
(tsS'anchors'
p17
(tsssS'org.robofab.postScriptHintData'
p18
(dp19
s."
LayerCount: 2
Fore
SplineSet
129 74 m 257
 323 636 l 257
 519 74 l 257
 129 74 l 257
21 0 m 257
 628 0 l 257
 365 726 l 257
 280 726 l 257
 21 0 l 257
EndSplineSet
EndChar

StartChar: E
Encoding: 69 69 24
Width: 639
VWidth: 0
GlyphClass: 2
Flags: HW
PickledData: "(dp1
S'org.pippin.gimp.org.kernagic'
p2
(dp3
S'lstem'
p4
I0
sS'rstem'
p5
I0
ssS'com.typemytype.robofont.layerData'
p6
(dp7
sS'org.robofab.postScriptHintData'
p8
(dp9
s."
AnchorPoint: "top" 360 711 basechar 0
AnchorPoint: "bot" 346 0 basechar 0
LayerCount: 2
Fore
SplineSet
99 711 m 257
 99 0 l 257
 569 0 l 257
 575 72 l 257
 194 72 l 257
 194 332 l 257
 536 332 l 257
 536 404 l 257
 194 404 l 257
 194 640 l 257
 564 640 l 257
 567 711 l 257
 99 711 l 257
EndSplineSet
EndChar

StartChar: Eng
Encoding: 330 330 33
Width: 740
VWidth: 0
GlyphClass: 2
Flags: HW
PickledData: "(dp1
S'org.robofab.postScriptHintData'
p2
(dp3
s."
LayerCount: 2
Fore
SplineSet
559 447 m 257
 560 -1 l 258
 560 -105 536 -143 357 -143 c 257
 358 -212 l 257
 561 -212 645 -163 645 -2 c 258
 645 447 l 257
 559 447 l 257
EndSplineSet
Refer: 69 78 N 1 0 0 1 0 0 2
EndChar

StartChar: Euro
Encoding: 8364 8364 36
Width: 679
VWidth: 0
GlyphClass: 2
Flags: HW
PickledData: "(dp1
S'org.pippin.gimp.org.kernagic'
p2
(dp3
S'lstem'
p4
I0
sS'rstem'
p5
I0
ssS'com.typemytype.robofont.layerData'
p6
(dp7
S'b'
(dp8
S'name'
p9
S'Euro'
p10
sS'lib'
p11
(dp12
sS'unicodes'
p13
(tsS'width'
p14
I1391
sS'contours'
p15
(tsS'components'
p16
(tsS'anchors'
p17
(tsssS'org.robofab.postScriptHintData'
p18
(dp19
s."
LayerCount: 2
Fore
SplineSet
-26 258 m 257
 395 258 l 257
 398 314 l 257
 105 314 l 257
 105 399 l 257
 398 399 l 257
 401 454 l 257
 -20 454 l 257
 -22 399 l 257
 60 399 l 257
 60 314 l 257
 -22 314 l 257
 -26 258 l 257
EndSplineSet
Refer: 14 67 N 1 0 0 1 -37 0 2
EndChar

StartChar: F
Encoding: 70 70 37
Width: 587
VWidth: 0
GlyphClass: 2
Flags: HW
PickledData: "(dp1
S'org.pippin.gimp.org.kernagic'
p2
(dp3
S'lstem'
p4
I0
sS'rstem'
p5
I705
ssS'com.typemytype.robofont.layerData'
p6
(dp7
sS'org.robofab.postScriptHintData'
p8
(dp9
s."
AnchorPoint: "top" 360 711 basechar 0
LayerCount: 2
Fore
SplineSet
99 711 m 257
 99 0 l 257
 194 0 l 257
 194 322 l 257
 512 322 l 257
 512 391 l 257
 194 391 l 257
 194 638 l 257
 566 638 l 257
 571 711 l 257
 99 711 l 257
EndSplineSet
EndChar

StartChar: G
Encoding: 71 71 38
Width: 721
VWidth: 0
GlyphClass: 2
Flags: HW
PickledData: "(dp1
S'org.pippin.gimp.org.kernagic'
p2
(dp3
S'lstem'
p4
I0
sS'rstem'
p5
I0
ssS'com.typemytype.robofont.layerData'
p6
(dp7
sS'org.robofab.postScriptHintData'
p8
(dp9
s."
AnchorPoint: "top" 390 711 basechar 0
AnchorPoint: "bot" 393 0 basechar 0
LayerCount: 2
Fore
SplineSet
401 -10 m 256
 499 -10 578 7 650 36 c 257
 650 375 l 257
 409 375 l 257
 404 312 l 257
 564 302 l 257
 564 85 l 257
 530 75 482 65 418 65 c 256
 238 65 171 179 171 360 c 256
 171 532 255 646 417 646 c 256
 506 646 566 608 597 574 c 257
 605 574 l 257
 652 626 l 257
 610 680 523 721 414 721 c 256
 200 721 74 580 74 359 c 256
 74 140 182 -10 401 -10 c 256
EndSplineSet
EndChar

StartChar: H
Encoding: 72 72 44
Width: 752
VWidth: 0
GlyphClass: 2
Flags: HW
PickledData: "(dp1
S'org.pippin.gimp.org.kernagic'
p2
(dp3
S'lstem'
p4
I0
sS'rstem'
p5
I0
ssS'com.typemytype.robofont.layerData'
p6
(dp7
sS'org.robofab.postScriptHintData'
p8
(dp9
s."
AnchorPoint: "top" 383 711 basechar 0
LayerCount: 2
Fore
SplineSet
557 329 m 257
 557 -0 l 257
 652 -0 l 257
 652 711 l 257
 557 711 l 257
 557 403 l 257
 196 403 l 257
 196 711 l 257
 101 711 l 257
 101 -0 l 257
 196 -0 l 257
 196 329 l 257
 557 329 l 257
EndSplineSet
EndChar

StartChar: Hbar
Encoding: 294 294 45
Width: 725
VWidth: 0
GlyphClass: 2
Flags: HW
PickledData: "(dp1
S'org.pippin.gimp.org.kernagic'
p2
(dp3
S'lstem'
p4
I0
sS'rstem'
p5
I0
ssS'com.typemytype.robofont.layerData'
p6
(dp7
sS'org.robofab.postScriptHintData'
p8
(dp9
s."
LayerCount: 2
Fore
SplineSet
31 625 m 257
 31 564 l 257
 690 564 l 257
 690 625 l 257
 31 625 l 257
EndSplineSet
Refer: 44 72 N 1 0 0 1 0 0 2
EndChar

StartChar: I
Encoding: 73 73 47
Width: 475
VWidth: 0
GlyphClass: 2
Flags: HW
PickledData: "(dp1
S'org.pippin.gimp.org.kernagic'
p2
(dp3
S'lstem'
p4
I0
sS'rstem'
p5
I0
ssS'com.typemytype.robofont.layerData'
p6
(dp7
sS'com.fontlab.hintData'
p8
(dp9
S'vhints'
p10
((dp11
S'position'
p12
I111
sS'width'
p13
I529
stp14
sS'hhints'
p15
((dp16
g12
I0
sg13
I86
s(dp17
g12
I1363
sg13
I86
stp18
ssS'org.robofab.postScriptHintData'
p19
(dp20
s."
HStem: 0 42 666 42
VStem: 54 258
AnchorPoint: "top" 236 711 basechar 0
LayerCount: 2
Fore
SplineSet
93 711 m 257
 93 653 l 257
 188 653 l 257
 188 58 l 257
 93 58 l 257
 93 -0 l 257
 377 -0 l 257
 377 58 l 257
 283 58 l 257
 283 653 l 257
 377 653 l 257
 377 711 l 257
 93 711 l 257
EndSplineSet
EndChar

StartChar: J
Encoding: 74 74 58
Width: 389
VWidth: 0
GlyphClass: 2
Flags: HW
PickledData: "(dp1
S'org.pippin.gimp.org.kernagic'
p2
(dp3
S'lstem'
p4
I132
sS'rstem'
p5
I0
ssS'com.typemytype.robofont.layerData'
p6
(dp7
sS'org.robofab.postScriptHintData'
p8
(dp9
s."
AnchorPoint: "top" 231 711 basechar 0
LayerCount: 2
Fore
SplineSet
181 711 m 257
 181 15 l 258
 181 -71 178 -83 127 -104 c 258
 67 -130 l 257
 96 -201 l 257
 140 -186 l 257
 254 -144 276 -119 276 14 c 258
 276 711 l 257
 181 711 l 257
EndSplineSet
EndChar

StartChar: K
Encoding: 75 75 60
Width: 644
VWidth: 0
GlyphClass: 2
Flags: HW
PickledData: "(dp1
S'org.pippin.gimp.org.kernagic'
p2
(dp3
S'lstem'
p4
I0
sS'rstem'
p5
I851
ssS'com.typemytype.robofont.layerData'
p6
(dp7
sS'org.robofab.postScriptHintData'
p8
(dp9
s."
AnchorPoint: "top" 336 711 basechar 0
AnchorPoint: "bot" 338 0 basechar 0
LayerCount: 2
Fore
SplineSet
632 711 m 257
 528 711 l 257
 194 372 l 257
 194 711 l 257
 99 711 l 257
 99 0 l 257
 194 0 l 257
 194 282 l 257
 271 357 l 257
 544 0 l 257
 650 0 l 257
 650 9 l 257
 341 409 l 257
 632 701 l 257
 632 711 l 257
EndSplineSet
EndChar

StartChar: L
Encoding: 76 76 62
Width: 538
VWidth: 0
GlyphClass: 2
Flags: HW
PickledData: "(dp1
S'org.pippin.gimp.org.kernagic'
p2
(dp3
S'lstem'
p4
I0
sS'rstem'
p5
I597
ssS'com.typemytype.robofont.layerData'
p6
(dp7
sS'org.robofab.postScriptHintData'
p8
(dp9
s."
AnchorPoint: "top" 216 711 basechar 0
AnchorPoint: "bot" 310 0 basechar 0
LayerCount: 2
Fore
SplineSet
99 711 m 257
 99 0 l 257
 535 0 l 257
 538 71 l 257
 194 71 l 257
 194 711 l 257
 99 711 l 257
EndSplineSet
EndChar

StartChar: M
Encoding: 77 77 68
Width: 886
VWidth: 0
GlyphClass: 2
Flags: HW
PickledData: "(dp1
S'org.pippin.gimp.org.kernagic'
p2
(dp3
S'lstem'
p4
I0
sS'rstem'
p5
I0
ssS'com.typemytype.robofont.layerData'
p6
(dp7
sS'com.typemytype.robofont.guides'
p8
((dp9
S'y'
I378
sS'x'
I548
sS'magnetic'
p10
I5
sS'angle'
p11
I0
sS'isGlobal'
p12
I00
stp13
sS'com.fontlab.hintData'
p14
(dp15
S'vhints'
p16
((dp17
S'position'
p18
I185
sS'width'
p19
I166
s(dp20
g18
I214
sg19
I151
s(dp21
g18
I332
sg19
I33
s(dp22
g18
I1463
sg19
I149
s(dp23
g18
I1463
sg19
I39
s(dp24
g18
I1477
sg19
I164
stp25
ssS'org.robofab.postScriptHintData'
p26
(dp27
s."
VStem: 90 81 104 74 162 16 714 73 714 19 721 80
AnchorPoint: "top" 450 711 basechar 0
LayerCount: 2
Fore
SplineSet
89 -0 m 257
 179 -0 l 257
 179 234 l 257
 183 587 l 257
 404 84 l 257
 481 84 l 257
 704 583 l 257
 708 235 l 257
 708 -0 l 257
 797 -0 l 257
 797 237 l 257
 785 711 l 257
 675 711 l 257
 444 193 l 257
 214 711 l 257
 101 711 l 257
 89 237 l 257
 89 -0 l 257
EndSplineSet
EndChar

StartChar: N
Encoding: 78 78 69
Width: 744
VWidth: 0
GlyphClass: 2
Flags: HW
PickledData: "(dp1
S'org.pippin.gimp.org.kernagic'
p2
(dp3
S'lstem'
p4
I0
sS'rstem'
p5
I0
ssS'com.typemytype.robofont.layerData'
p6
(dp7
sS'org.robofab.postScriptHintData'
p8
(dp9
s."
AnchorPoint: "top" 385 711 basechar 0
AnchorPoint: "bot" 378 0 basechar 0
LayerCount: 2
Fore
SplineSet
560 711 m 257
 560 326 l 257
 565 122 l 257
 194 711 l 257
 99 711 l 257
 99 0 l 257
 186 0 l 257
 186 361 l 257
 178 583 l 257
 546 0 l 257
 645 0 l 257
 645 711 l 257
 560 711 l 257
EndSplineSet
EndChar

StartChar: O
Encoding: 79 79 74
Width: 791
VWidth: 0
GlyphClass: 2
Flags: HW
PickledData: "(dp1
S'org.pippin.gimp.org.kernagic'
p2
(dp3
S'lstem'
p4
I0
sS'rstem'
p5
I0
ssS'com.typemytype.robofont.layerData'
p6
(dp7
sS'com.typemytype.robofont.guides'
p8
(tsS'com.fontlab.hintData'
p9
(dp10
S'vhints'
p11
((dp12
S'position'
p13
I150
sS'width'
p14
I122
s(dp15
g13
I1390
sg14
I122
stp16
sS'hhints'
p17
((dp18
g13
I-19
sg14
I96
s(dp19
g13
I1372
sg14
I96
stp20
ssS'org.robofab.postScriptHintData'
p21
(dp22
s."
HStem: -9 47 670 47
VStem: 73 60 679 60
AnchorPoint: "top" 397 711 basechar 0
LayerCount: 2
Fore
SplineSet
619 352 m 256
 619 181 561 65 396 65 c 256
 232 65 173 181 173 352 c 256
 173 530 237 646 397 646 c 256
 557 646 619 529 619 352 c 256
76 352 m 256
 76 130 178 -10 397 -10 c 256
 613 -10 715 133 715 351 c 256
 715 578 607 721 397 721 c 256
 182 721 76 579 76 352 c 256
EndSplineSet
Substitution2: "Single Substitution lookup 4 subtable" ordmasculine
EndChar

StartChar: OE
Encoding: 338 338 75
Width: 1149
VWidth: 0
GlyphClass: 2
Flags: HW
PickledData: "(dp1
S'org.pippin.gimp.org.kernagic'
p2
(dp3
S'lstem'
p4
I0
sS'rstem'
p5
I0
ssS'com.typemytype.robofont.layerData'
p6
(dp7
S'b'
(dp8
S'name'
p9
S'OE'
p10
sS'lib'
p11
(dp12
sS'unicodes'
p13
(tsS'width'
p14
I2367
sS'contours'
p15
(tsS'components'
p16
(tsS'anchors'
p17
(tsssS'org.robofab.postScriptHintData'
p18
(dp19
s."
LayerCount: 2
Fore
SplineSet
611 352 m 256
 611 181 553 65 387 65 c 256
 221 65 162 181 162 352 c 256
 162 530 226 646 387 646 c 256
 549 646 611 529 611 352 c 256
68 353 m 256
 68 131 170 -10 387 -10 c 256
 487 -10 565 26 611 88 c 257
 611 0 l 257
 1079 0 l 257
 1084 72 l 257
 703 72 l 257
 703 332 l 257
 1045 332 l 257
 1045 403 l 257
 703 403 l 257
 703 640 l 257
 1073 640 l 257
 1077 711 l 257
 611 711 l 257
 611 620 l 257
 564 685 486 721 388 721 c 256
 175 721 68 580 68 353 c 256
EndSplineSet
EndChar

StartChar: Oslash
Encoding: 216 216 83
Width: 791
VWidth: 0
GlyphClass: 2
Flags: HW
PickledData: "(dp1
S'org.pippin.gimp.org.kernagic'
p2
(dp3
S'lstem'
p4
I0
sS'rstem'
p5
I0
ssS'com.typemytype.robofont.layerData'
p6
(dp7
sS'org.robofab.postScriptHintData'
p8
(dp9
s."
AnchorPoint: "top" 397 711 basechar 0
LayerCount: 2
Fore
SplineSet
396 65 m 256
 372 65 350 68 330 73 c 257
 532 604 l 257
 594 555 619 466 619 352 c 256
 619 181 561 65 396 65 c 256
281 93 m 257
 203 136 173 230 173 352 c 256
 173 530 237 646 397 646 c 256
 430 646 459 640 484 631 c 257
 281 93 l 257
255 -123 m 257
 302 0 l 257
 331 -7 362 -10 397 -10 c 256
 613 -10 715 133 715 351 c 256
 715 508 664 625 562 682 c 257
 609 806 l 257
 557 826 l 257
 511 704 l 257
 477 716 439 721 397 721 c 256
 182 721 76 579 76 352 c 256
 76 187 133 67 252 17 c 257
 206 -105 l 257
 255 -123 l 257
EndSplineSet
EndChar

StartChar: P
Encoding: 80 80 86
Width: 638
VWidth: 0
GlyphClass: 2
Flags: HW
PickledData: "(dp1
S'org.pippin.gimp.org.kernagic'
p2
(dp3
S'lstem'
p4
I0
sS'rstem'
p5
I807
ssS'com.typemytype.robofont.layerData'
p6
(dp7
sS'org.robofab.postScriptHintData'
p8
(dp9
s."
AnchorPoint: "top" 338 711 basechar 0
LayerCount: 2
Fore
SplineSet
99 700 m 257
 99 0 l 257
 194 0 l 257
 194 311 l 257
 232 308 267 306 298 306 c 256
 538 306 592 396 592 519 c 256
 592 649 520 714 305 714 c 256
 247 714 179 709 99 700 c 257
194 378 m 257
 194 641 l 257
 239 645 278 647 311 647 c 256
 471 647 505 600 505 517 c 256
 505 428 473 373 298 373 c 256
 268 373 234 375 194 378 c 257
EndSplineSet
EndChar

StartChar: Q
Encoding: 81 81 87
Width: 779
VWidth: 0
GlyphClass: 2
Flags: HW
PickledData: "(dp1
S'org.pippin.gimp.org.kernagic'
p2
(dp3
S'lstem'
p4
I0
sS'rstem'
p5
I0
ssS'com.typemytype.robofont.layerData'
p6
(dp7
sS'org.robofab.postScriptHintData'
p8
(dp9
s."
LayerCount: 2
Fore
SplineSet
402 19 m 257
 403 15 562 -209 569 -215 c 257
 630 -171 l 257
 623 -165 487 26 483 32 c 257
 402 19 l 257
EndSplineSet
Refer: 74 79 N 1 0 0 1 0 0 2
EndChar

StartChar: R
Encoding: 82 82 88
Width: 660
VWidth: 0
GlyphClass: 2
Flags: HW
PickledData: "(dp1
S'org.pippin.gimp.org.kernagic'
p2
(dp3
S'lstem'
p4
I0
sS'rstem'
p5
I839
ssS'com.typemytype.robofont.layerData'
p6
(dp7
sS'com.fontlab.hintData'
p8
(dp9
S'vhints'
p10
((dp11
S'position'
p12
I1122
sS'width'
p13
I117
stp14
sS'hhints'
p15
((dp16
g12
I722
sg13
I96
s(dp17
g12
I1355
sg13
I94
stp18
ssS'org.robofab.postScriptHintData'
p19
(dp20
s."
HStem: 353 47 662 46
VStem: 548 57
AnchorPoint: "top" 348 711 basechar 0
AnchorPoint: "bot" 352 0 basechar 0
LayerCount: 2
Fore
SplineSet
606 523 m 256
 606 659 531 715 325 715 c 256
 263 715 189 710 101 700 c 257
 101 0 l 257
 196 0 l 257
 196 323 l 257
 359 324 l 257
 523 0 l 257
 625 0 l 257
 625 10 l 257
 454 334 l 257
 549 358 606 416 606 523 c 256
325 647 m 256
 485 647 519 605 519 521 c 256
 519 427 480 389 320 389 c 258
 196 389 l 257
 196 641 l 257
 246 645 289 647 325 647 c 256
EndSplineSet
EndChar

StartChar: S
Encoding: 83 83 92
Width: 596
VWidth: 0
GlyphClass: 2
Flags: HW
PickledData: "(dp1
S'org.pippin.gimp.org.kernagic'
p2
(dp3
S'lstem'
p4
I185
sS'rstem'
p5
I826
ssS'com.typemytype.robofont.guides'
p6
((dp7
S'y'
I973
sS'x'
I1035
sS'magnetic'
p8
I5
sS'angle'
p9
F90
sS'isGlobal'
p10
I00
s(dp11
S'y'
I382
sS'x'
I75
sg8
I5
sg9
F90
sg10
I00
stp12
sS'com.typemytype.robofont.layerData'
p13
(dp14
sS'org.robofab.postScriptHintData'
p15
(dp16
s."
AnchorPoint: "top" 303 720 basechar 0
AnchorPoint: "bot" 304 0 basechar 0
LayerCount: 2
Fore
SplineSet
448 188 m 256
 448 99 380 65 292 65 c 256
 227 65 159 89 113 134 c 257
 107 134 l 257
 55 83 l 257
 95 34 179 -10 292 -10 c 256
 411 -10 538 39 538 187 c 256
 538 313 470 349 354 395 c 257
 254 435 l 257
 176 467 152 485 152 540 c 256
 152 622 219 646 299 646 c 256
 371 646 433 622 470 579 c 257
 477 579 l 257
 528 629 l 257
 479 686 397 721 303 721 c 256
 176 721 57 680 57 529 c 256
 57 429 113 398 212 358 c 258
 312 317 l 258
 416 274 448 255 448 188 c 256
EndSplineSet
EndChar

StartChar: T
Encoding: 84 84 98
Width: 561
VWidth: 0
GlyphClass: 2
Flags: HW
PickledData: "(dp1
S'org.pippin.gimp.org.kernagic'
p2
(dp3
S'lstem'
p4
I285
sS'rstem'
p5
I844
ssS'com.typemytype.robofont.layerData'
p6
(dp7
sS'org.robofab.postScriptHintData'
p8
(dp9
s."
AnchorPoint: "top" 282 711 basechar 0
AnchorPoint: "bot" 283 0 basechar 0
LayerCount: 2
Fore
SplineSet
3 711 m 257
 3 640 l 257
 232 640 l 257
 232 -0 l 257
 328 -0 l 257
 328 640 l 257
 558 640 l 257
 558 711 l 257
 3 711 l 257
EndSplineSet
EndChar

StartChar: Thorn
Encoding: 222 222 102
Width: 593
VWidth: 0
GlyphClass: 2
Flags: HW
PickledData: "(dp1
S'org.pippin.gimp.org.kernagic'
p2
(dp3
S'lstem'
p4
I0
sS'rstem'
p5
I0
ssS'com.typemytype.robofont.layerData'
p6
(dp7
S'b'
(dp8
S'name'
p9
S'Thorn'
p10
sS'lib'
p11
(dp12
sS'unicodes'
p13
(tsS'width'
p14
I1192
sS'contours'
p15
(tsS'components'
p16
(tsS'anchors'
p17
(tsssS'org.robofab.postScriptHintData'
p18
(dp19
s."
LayerCount: 2
Fore
SplineSet
93 0 m 257
 188 0 l 257
 188 219 l 257
 277 219 l 258
 450 219 512 283 512 408 c 256
 512 536 420 576 276 576 c 258
 188 576 l 257
 188 729 l 257
 93 729 l 257
 93 0 l 257
188 508 m 257
 277 508 l 258
 370 508 418 487 418 406 c 256
 418 317 383 288 273 288 c 258
 188 288 l 257
 188 508 l 257
EndSplineSet
EndChar

StartChar: U
Encoding: 85 85 103
Width: 710
VWidth: 0
GlyphClass: 2
Flags: HW
PickledData: "(dp1
S'org.pippin.gimp.org.kernagic'
p2
(dp3
S'lstem'
p4
I0
sS'rstem'
p5
I0
ssS'com.typemytype.robofont.layerData'
p6
(dp7
sS'org.robofab.postScriptHintData'
p8
(dp9
s."
AnchorPoint: "top" 359 711 basechar 0
AnchorPoint: "bot" 353 0 basechar 0
LayerCount: 2
Fore
SplineSet
530 711 m 257
 530 267 l 258
 530 135 478 66 354 66 c 256
 226 66 178 135 178 267 c 258
 178 711 l 257
 83 711 l 257
 83 265 l 258
 83 102 164 -10 354 -10 c 256
 542 -10 625 104 625 263 c 258
 625 711 l 257
 530 711 l 257
EndSplineSet
EndChar

StartChar: V
Encoding: 86 86 114
Width: 704
VWidth: 0
GlyphClass: 2
Flags: HW
PickledData: "(dp1
S'org.pippin.gimp.org.kernagic'
p2
(dp3
S'lstem'
p4
I0
sS'rstem'
p5
I0
ssS'com.typemytype.robofont.layerData'
p6
(dp7
sS'org.robofab.postScriptHintData'
p8
(dp9
s."
LayerCount: 2
Fore
SplineSet
305 -0 m 257
 392 -0 l 257
 667 711 l 257
 565 711 l 257
 493 510 419 311 349 108 c 257
 280 312 206 510 134 711 c 257
 38 711 l 257
 305 -0 l 257
EndSplineSet
EndChar

StartChar: W
Encoding: 87 87 115
Width: 966
VWidth: 0
GlyphClass: 2
Flags: HW
PickledData: "(dp1
S'org.pippin.gimp.org.kernagic'
p2
(dp3
S'lstem'
p4
I0
sS'rstem'
p5
I0
ssS'com.typemytype.robofont.layerData'
p6
(dp7
sS'org.robofab.postScriptHintData'
p8
(dp9
s."
AnchorPoint: "top" 489 711 basechar 0
AnchorPoint: "bot" 486 0 basechar 0
LayerCount: 2
Fore
SplineSet
488 582 m 257
 653 0 l 257
 744 0 l 257
 929 711 l 257
 837 711 l 257
 697 120 l 257
 532 697 l 257
 443 697 l 257
 276 126 l 257
 123 711 l 257
 38 711 l 257
 227 0 l 257
 316 0 l 257
 488 582 l 257
EndSplineSet
EndChar

StartChar: X
Encoding: 88 88 120
Width: 630
VWidth: 0
GlyphClass: 2
Flags: HW
PickledData: "(dp1
S'org.pippin.gimp.org.kernagic'
p2
(dp3
S'lstem'
p4
I0
sS'rstem'
p5
I0
ssS'com.typemytype.robofont.layerData'
p6
(dp7
sS'org.robofab.postScriptHintData'
p8
(dp9
s."
LayerCount: 2
Fore
SplineSet
366 356 m 257
 600 711 l 257
 498 711 l 257
 317 431 l 257
 130 711 l 257
 25 711 l 257
 258 360 l 257
 22 -0 l 257
 120 -0 l 257
 309 284 l 257
 497 -0 l 257
 604 -0 l 257
 366 356 l 257
EndSplineSet
EndChar

StartChar: Y
Encoding: 89 89 121
Width: 666
VWidth: 0
GlyphClass: 2
Flags: HW
PickledData: "(dp1
S'org.pippin.gimp.org.kernagic'
p2
(dp3
S'lstem'
p4
I0
sS'rstem'
p5
I0
ssS'com.typemytype.robofont.layerData'
p6
(dp7
sS'org.robofab.postScriptHintData'
p8
(dp9
s."
AnchorPoint: "top" 333 711 basechar 0
LayerCount: 2
Fore
SplineSet
381 251 m 257
 629 711 l 257
 534 711 l 257
 333 334 l 257
 127 711 l 257
 37 711 l 257
 287 252 l 257
 287 0 l 257
 381 0 l 257
 381 251 l 257
EndSplineSet
EndChar

StartChar: Z
Encoding: 90 90 126
Width: 581
VWidth: 0
GlyphClass: 2
Flags: HW
PickledData: "(dp1
S'org.pippin.gimp.org.kernagic'
p2
(dp3
S'lstem'
p4
I0
sS'rstem'
p5
I0
ssS'com.typemytype.robofont.layerData'
p6
(dp7
sS'org.robofab.postScriptHintData'
p8
(dp9
s."
AnchorPoint: "top" 325 711 basechar 0
AnchorPoint: "bot" 317 0 basechar 0
LayerCount: 2
Fore
SplineSet
45 0 m 257
 549 0 l 257
 552 71 l 257
 153 71 l 257
 548 646 l 257
 545 711 l 257
 60 711 l 257
 61 640 l 257
 442 640 l 257
 45 65 l 257
 45 0 l 257
EndSplineSet
EndChar

StartChar: a
Encoding: 97 97 130
Width: 546
VWidth: 0
GlyphClass: 2
Flags: HW
PickledData: "(dp1
S'org.pippin.gimp.org.kernagic'
p2
(dp3
S'lstem'
p4
I0
sS'rstem'
p5
I0
ssS'com.typemytype.robofont.layerData'
p6
(dp7
sS'com.typemytype.robofont.guides'
p8
(tsS'com.fontlab.hintData'
p9
(dp10
S'vhints'
p11
((dp12
S'position'
p13
I126
sS'width'
p14
I120
s(dp15
g13
I842
sg14
I32
s(dp16
g13
I875
sg14
I86
stp17
sS'hhints'
p18
((dp19
g13
I-15
sg14
I92
s(dp20
g13
I535
sg14
I82
s(dp21
g13
I983
sg14
I92
stp22
ssS'org.robofab.postScriptHintData'
p23
(dp24
s."
HStem: -7 45 261 40 480 45
VStem: 62 59 411 16 427 42
AnchorPoint: "top" 274 529 basechar 0
AnchorPoint: "bot" 243 0 basechar 0
LayerCount: 2
Fore
SplineSet
239 53 m 256
 183 53 140 77 140 143 c 256
 140 204 174 235 282 235 c 258
 385 234 l 257
 385 124 l 257
 352 82 301 53 239 53 c 256
55 144 m 256
 55 41 125 -10 226 -10 c 256
 298 -10 351 15 393 65 c 257
 399 0 l 257
 473 0 l 257
 473 344 l 258
 473 487 390 540 271 540 c 256
 201 540 127 524 74 490 c 257
 100 423 l 257
 150 457 219 473 269 473 c 256
 346 473 385 437 385 352 c 258
 385 291 l 257
 271 292 l 257
 266 292 l 258
 120 292 55 238 55 144 c 256
EndSplineSet
Substitution2: "Single Substitution lookup 3 subtable" ordfeminine
EndChar

StartChar: acute
Encoding: 180 180 134
Width: 357
VWidth: 0
GlyphClass: 4
Flags: HW
PickledData: "(dp1
S'org.robofab.postScriptHintData'
p2
(dp3
sS'com.typemytype.robofont.layerData'
p4
(dp5
s."
AnchorPoint: "top" 173 528 mark 0
LayerCount: 2
Fore
SplineSet
143 590 m 257
 201 590 l 257
 347 774 l 257
 238 774 l 257
 143 590 l 257
EndSplineSet
EndChar

StartChar: ae
Encoding: 230 230 136
Width: 809
VWidth: 0
GlyphClass: 2
Flags: HW
PickledData: "(dp1
S'org.pippin.gimp.org.kernagic'
p2
(dp3
S'lstem'
p4
I0
sS'rstem'
p5
I0
ssS'com.typemytype.robofont.layerData'
p6
(dp7
sS'com.fontlab.hintData'
p8
(dp9
S'vhints'
p10
((dp11
S'position'
p12
I126
sS'width'
p13
I119
s(dp14
g12
I817
sg13
I117
s(dp15
g12
I817
sg13
I82
s(dp16
g12
I1556
sg13
I98
stp17
sS'hhints'
p18
((dp19
g12
I-14
sg13
I98
s(dp20
g12
I518
sg13
I82
s(dp21
g12
I983
sg13
I92
stp22
ssS'org.robofab.postScriptHintData'
p23
(dp24
s."
HStem: -7 48 253 40 480 45
VStem: 62 58 399 57 399 40 760 48
AnchorPoint: "top" 444 528 basechar 0
LayerCount: 2
Fore
SplineSet
594 473 m 256
 670 473 696 427 696 370 c 256
 696 329 680 292 541 292 c 256
 514 292 482 293 444 296 c 257
 451 415 505 473 594 473 c 256
360 174 m 256
 357 96 297 53 214 53 c 256
 170 53 114 75 114 144 c 256
 114 204 139 249 246 249 c 256
 267 249 322 246 360 242 c 256
 360 241 360 176 360 174 c 256
775 378 m 256
 775 467 712 538 592 538 c 256
 517 538 454 510 415 439 c 257
 393 512 332 538 246 538 c 256
 163 538 102 517 40 475 c 257
 74 418 l 257
 135 458 199 471 248 471 c 256
 325 471 360 439 360 350 c 258
 360 299 l 257
 320 304 258 306 235 306 c 256
 84 306 30 239 30 144 c 256
 30 45 94 -6 188 -10 c 257
 272 -10 360 17 403 100 c 257
 440 28 509 -10 599 -10 c 256
 673 -10 736 12 780 42 c 257
 754 101 l 257
 711 76 672 56 610 56 c 256
 518 56 452 102 443 235 c 257
 483 233 521 230 557 230 c 256
 683 230 775 256 775 378 c 256
EndSplineSet
EndChar

StartChar: ampersand
Encoding: 38 38 141
Width: 693
VWidth: 0
GlyphClass: 2
Flags: HW
PickledData: "(dp1
S'org.pippin.gimp.org.kernagic'
p2
(dp3
S'lstem'
p4
I0
sS'rstem'
p5
I0
ssS'com.typemytype.robofont.layerData'
p6
(dp7
sS'com.fontlab.hintData'
p8
(dp9
S'vhints'
p10
((dp11
S'position'
p12
I135
sS'width'
p13
I121
s(dp14
g12
I312
sg13
I105
s(dp15
g12
I917
sg13
I110
stp16
sS'hhints'
p17
((dp18
g12
I-19
sg13
I96
s(dp19
g12
I1372
sg13
I96
stp20
ssS'org.robofab.postScriptHintData'
p21
(dp22
s."
HStem: -9 47 670 47
VStem: 66 59 152 51 448 54
LayerCount: 2
Fore
SplineSet
293 661 m 256
 356 661 390 627 390 569 c 256
 390 495 325 456 256 419 c 257
 201 483 184 521 184 567 c 256
 184 623 231 661 293 661 c 256
46 192 m 256
 46 73 132 -10 269 -10 c 256
 364 -10 436 29 492 83 c 257
 587 -11 l 257
 634 39 l 257
 538 135 l 257
 591 203 626 280 654 336 c 257
 600 372 l 257
 558 291 521 231 487 185 c 257
 297 373 l 257
 381 418 467 467 467 571 c 256
 467 671 392 724 293 724 c 256
 186 724 108 661 108 566 c 256
 108 505 131 451 193 387 c 257
 102 341 46 293 46 192 c 256
281 60 m 256
 184 60 128 111 128 196 c 256
 128 265 168 303 235 339 c 257
 443 132 l 257
 390 78 341 60 281 60 c 256
EndSplineSet
EndChar

StartChar: uni02BC
Encoding: 700 700 143
Width: 314
VWidth: 0
GlyphClass: 2
Flags: HW
PickledData: "(dp1
S'org.robofab.postScriptHintData'
p2
(dp3
sS'com.typemytype.robofont.layerData'
p4
(dp5
s."
LayerCount: 2
Fore
SplineSet
56 563 m 257
 125 563 l 257
 125 563 172 734 180 777 c 257
 88 777 l 257
 86 755 56 563 56 563 c 257
EndSplineSet
EndChar

StartChar: approxequal
Encoding: 8776 8776 144
Width: 562
VWidth: 0
GlyphClass: 2
Flags: HW
PickledData: "(dp1
S'org.pippin.gimp.org.kernagic'
p2
(dp3
S'lstem'
p4
I0
sS'rstem'
p5
I0
ssS'com.typemytype.robofont.layerData'
p6
(dp7
S'b'
(dp8
S'name'
p9
S'approxequal'
p10
sS'lib'
p11
(dp12
sS'unicodes'
p13
(tsS'width'
p14
I1136
sS'contours'
p15
(tsS'components'
p16
(tsS'anchors'
p17
(tsssS'org.robofab.postScriptHintData'
p18
(dp19
s."
LayerCount: 2
Fore
SplineSet
65 209 m 257
 86 253 125 289 168 289 c 256
 201 289 236 271 284 250 c 256
 326 230 362 216 397 216 c 256
 460 216 498 255 521 318 c 257
 494 360 l 257
 475 316 437 283 398 283 c 256
 369 283 331 302 286 322 c 256
 237 345 208 356 169 356 c 256
 104 356 61 312 40 255 c 257
 65 209 l 257
65 375 m 257
 86 419 125 454 168 454 c 256
 201 454 236 437 284 416 c 256
 326 396 362 381 397 381 c 256
 460 381 498 421 521 483 c 257
 494 525 l 257
 475 482 437 448 398 448 c 256
 369 448 331 467 286 487 c 256
 237 509 208 521 169 521 c 256
 104 521 61 478 40 421 c 257
 65 375 l 257
EndSplineSet
EndChar

StartChar: asciicircum
Encoding: 94 94 147
Width: 632
VWidth: 0
GlyphClass: 2
Flags: HW
PickledData: "(dp1
S'org.pippin.gimp.org.kernagic'
p2
(dp3
S'lstem'
p4
I0
sS'rstem'
p5
I0
ssS'com.typemytype.robofont.layerData'
p6
(dp7
sS'org.robofab.postScriptHintData'
p8
(dp9
s."
LayerCount: 2
Fore
SplineSet
295 711 m 257
 45 145 l 257
 132 145 l 257
 316 571 l 257
 500 145 l 257
 588 145 l 257
 336 711 l 257
 295 711 l 257
EndSplineSet
EndChar

StartChar: asciitilde
Encoding: 126 126 148
Width: 582
VWidth: 0
GlyphClass: 2
Flags: HW
PickledData: "(dp1
S'org.pippin.gimp.org.kernagic'
p2
(dp3
S'lstem'
p4
I0
sS'rstem'
p5
I0
ssS'com.typemytype.robofont.layerData'
p6
(dp7
S'b'
(dp8
S'name'
p9
S'asciitilde'
p10
sS'lib'
p11
(dp12
sS'unicodes'
p13
(tsS'width'
p14
I1192
sS'contours'
p15
(tsS'components'
p16
(tsS'anchors'
p17
(tsssS'org.robofab.postScriptHintData'
p18
(dp19
s."
LayerCount: 2
Fore
SplineSet
174 317 m 256
 233 317 336 246 403 246 c 256
 464 246 504 284 528 343 c 257
 503 390 l 257
 482 348 445 313 405 313 c 256
 376 313 338 332 292 352 c 256
 244 373 215 385 176 385 c 256
 113 385 70 343 48 289 c 257
 70 239 l 257
 92 281 131 317 174 317 c 256
EndSplineSet
EndChar

StartChar: asterisk
Encoding: 42 42 149
Width: 462
VWidth: 0
GlyphClass: 2
Flags: HW
PickledData: "(dp1
S'org.pippin.gimp.org.kernagic'
p2
(dp3
S'lstem'
p4
I0
sS'rstem'
p5
I0
ssS'com.typemytype.robofont.layerData'
p6
(dp7
sS'org.robofab.postScriptHintData'
p8
(dp9
s."
LayerCount: 2
Fore
SplineSet
144 287 m 257
 230 452 l 257
 324 287 l 257
 349 303 366 313 391 329 c 257
 350 381 294 456 275 481 c 257
 443 519 l 257
 422 595 l 257
 256 526 l 257
 274 714 l 257
 192 714 l 257
 208 526 l 257
 44 595 l 257
 22 519 l 257
 189 481 l 257
 76 329 l 257
 144 287 l 257
EndSplineSet
EndChar

StartChar: at
Encoding: 64 64 150
Width: 947
VWidth: 0
GlyphClass: 2
Flags: HW
PickledData: "(dp1
S'org.pippin.gimp.org.kernagic'
p2
(dp3
S'lstem'
p4
I0
sS'rstem'
p5
I0
ssS'com.typemytype.robofont.layerData'
p6
(dp7
sS'org.robofab.postScriptHintData'
p8
(dp9
s."
LayerCount: 2
Fore
SplineSet
439 165 m 256
 380 165 356 211 356 283 c 256
 356 392 418 474 506 474 c 256
 520 474 551 470 572 465 c 257
 551 340 l 257
 535 240 512 165 439 165 c 256
462 -95 m 256
 556 -95 652 -71 714 -28 c 257
 693 25 l 257
 627 -17 544 -32 463 -32 c 256
 260 -32 147 103 147 298 c 256
 147 503 280 664 491 664 c 256
 699 664 801 535 801 372 c 256
 801 238 741 169 685 169 c 256
 650 169 622 198 622 238 c 256
 622 300 640 391 654 492 c 257
 612 513 547 529 498 529 c 256
 358 529 283 403 283 280 c 256
 283 182 336 105 431 105 c 256
 499 105 544 158 568 213 c 257
 583 149 653 136 685 108 c 257
 770 108 868 196 868 368 c 256
 868 587 706 726 495 726 c 256
 251 726 72 544 72 300 c 256
 72 54 232 -95 462 -95 c 256
EndSplineSet
EndChar

StartChar: b
Encoding: 98 98 152
Width: 595
VWidth: 0
GlyphClass: 2
Flags: HW
PickledData: "(dp1
S'org.pippin.gimp.org.kernagic'
p2
(dp3
S'lstem'
p4
I0
sS'rstem'
p5
I0
ssS'com.typemytype.robofont.layerData'
p6
(dp7
sS'com.typemytype.robofont.guides'
p8
(tsS'com.fontlab.hintData'
p9
(dp10
S'vhints'
p11
((dp12
S'position'
p13
I193
sS'width'
p14
I125
s(dp15
g13
I193
sg14
I94
s(dp16
g13
I1018
sg14
I122
stp17
sS'hhints'
p18
((dp19
g13
I-19
sg14
I92
s(dp20
g13
I982
sg14
I92
stp21
ssS'org.robofab.postScriptHintData'
p22
(dp23
s."
HStem: -9 45 479 45
VStem: 94 61 94 46 497 60
AnchorPoint: "top" 324 528 basechar 0
LayerCount: 2
Fore
SplineSet
308 56 m 256
 250 56 199 78 167 122 c 257
 167 273 l 258
 167 395 212 474 317 474 c 256
 416 474 447 387 447 265 c 256
 447 137 405 56 308 56 c 256
330 540 m 256
 269 540 203 518 167 431 c 257
 171 542 l 257
 171 762 l 257
 82 752 l 257
 82 0 l 257
 154 0 l 257
 160 56 l 257
 192 18 244 -10 313 -10 c 256
 457 -10 538 100 538 265 c 256
 538 425 474 540 330 540 c 256
EndSplineSet
EndChar

StartChar: backslash
Encoding: 92 92 153
Width: 457
VWidth: 0
GlyphClass: 2
Flags: HW
PickledData: "(dp1
S'org.pippin.gimp.org.kernagic'
p2
(dp3
S'lstem'
p4
I0
sS'rstem'
p5
I0
ssS'com.typemytype.robofont.layerData'
p6
(dp7
S'b'
(dp8
S'name'
p9
S'backslash'
p10
sS'lib'
p11
(dp12
sS'unicodes'
p13
(tsS'width'
p14
I937
sS'contours'
p15
(tsS'components'
p16
(tsS'anchors'
p17
(tsssS'org.robofab.postScriptHintData'
p18
(dp19
s."
LayerCount: 2
Fore
SplineSet
310 -8 m 257
 379 -8 l 257
 117 722 l 257
 47 722 l 257
 310 -8 l 257
EndSplineSet
EndChar

StartChar: bar
Encoding: 124 124 154
Width: 334
VWidth: 0
GlyphClass: 2
Flags: HW
PickledData: "(dp1
S'org.pippin.gimp.org.kernagic'
p2
(dp3
S'lstem'
p4
I0
sS'rstem'
p5
I0
ssS'com.typemytype.robofont.layerData'
p6
(dp7
S'b'
(dp8
S'name'
p9
S'bar'
p10
sS'lib'
p11
(dp12
sS'unicodes'
p13
(tsS'width'
p14
I681
sS'contours'
p15
(tsS'components'
p16
(tsS'anchors'
p17
(tsssS'org.robofab.postScriptHintData'
p18
(dp19
s."
LayerCount: 2
Fore
SplineSet
128 721 m 257
 128 -136 l 257
 202 -136 l 257
 202 721 l 257
 128 721 l 257
EndSplineSet
EndChar

StartChar: braceleft
Encoding: 123 123 155
Width: 420
VWidth: 0
GlyphClass: 2
Flags: HW
PickledData: "(dp1
S'org.pippin.gimp.org.kernagic'
p2
(dp3
S'lstem'
p4
I0
sS'rstem'
p5
I0
ssS'com.typemytype.robofont.layerData'
p6
(dp7
sS'org.robofab.postScriptHintData'
p8
(dp9
s."
LayerCount: 2
Fore
SplineSet
358 -128 m 257
 358 -65 l 257
 285 -65 280 -52 280 47 c 258
 280 165 l 258
 280 249 260 286 184 299 c 257
 260 312 280 350 280 433 c 258
 280 551 l 258
 280 649 285 664 358 664 c 257
 358 726 l 257
 214 726 191 701 191 560 c 258
 191 473 l 258
 191 368 191 335 94 335 c 257
 94 263 l 257
 192 263 191 230 191 125 c 258
 191 38 l 258
 191 -103 214 -128 358 -128 c 257
EndSplineSet
EndChar

StartChar: braceright
Encoding: 125 125 156
Width: 420
VWidth: 0
GlyphClass: 2
Flags: HW
PickledData: "(dp1
S'org.pippin.gimp.org.kernagic'
p2
(dp3
S'lstem'
p4
I0
sS'rstem'
p5
I0
ssS'com.typemytype.robofont.layerData'
p6
(dp7
sS'org.robofab.postScriptHintData'
p8
(dp9
s."
LayerCount: 2
Fore
SplineSet
62 -128 m 257
 206 -128 229 -103 229 38 c 258
 229 125 l 258
 229 230 229 263 327 263 c 257
 327 335 l 257
 230 335 229 368 229 473 c 258
 229 560 l 258
 229 701 206 726 62 726 c 257
 62 664 l 257
 135 664 140 649 140 551 c 258
 140 433 l 258
 140 350 160 312 236 299 c 257
 160 286 140 249 140 165 c 258
 140 47 l 258
 140 -52 135 -65 62 -65 c 257
 62 -128 l 257
EndSplineSet
EndChar

StartChar: bracketleft
Encoding: 91 91 157
Width: 401
VWidth: 0
GlyphClass: 2
Flags: HW
PickledData: "(dp1
S'org.pippin.gimp.org.kernagic'
p2
(dp3
S'lstem'
p4
I0
sS'rstem'
p5
I0
ssS'com.typemytype.robofont.layerData'
p6
(dp7
sS'org.robofab.postScriptHintData'
p8
(dp9
s."
LayerCount: 2
Fore
SplineSet
106 -125 m 257
 332 -125 l 257
 332 -62 l 257
 196 -62 l 257
 196 658 l 257
 332 658 l 257
 332 721 l 257
 106 721 l 257
 106 -125 l 257
EndSplineSet
EndChar

StartChar: bracketright
Encoding: 93 93 158
Width: 471
VWidth: 0
GlyphClass: 2
Flags: HW
PickledData: "(dp1
S'org.pippin.gimp.org.kernagic'
p2
(dp3
S'lstem'
p4
I0
sS'rstem'
p5
I0
ssS'com.typemytype.robofont.layerData'
p6
(dp7
sS'org.robofab.postScriptHintData'
p8
(dp9
s."
LayerCount: 2
Fore
SplineSet
141 -125 m 257
 366 -125 l 257
 366 721 l 257
 141 721 l 257
 141 658 l 257
 277 658 l 257
 277 -62 l 257
 141 -62 l 257
 141 -125 l 257
EndSplineSet
EndChar

StartChar: breve
Encoding: 728 728 159
Width: 426
VWidth: 0
GlyphClass: 4
Flags: HW
PickledData: "(dp1
S'org.robofab.postScriptHintData'
p2
(dp3
sS'com.typemytype.robofont.layerData'
p4
(dp5
s."
AnchorPoint: "top" 208 521 mark 0
LayerCount: 2
Fore
SplineSet
207 629 m 256
 275 629 327 667 327 748 c 257
 271 748 l 257
 271 704 238 684 207 684 c 256
 176 684 145 704 145 748 c 257
 87 748 l 257
 87 667 140 629 207 629 c 256
EndSplineSet
EndChar

StartChar: uni0311
Encoding: 785 785 160
Width: 389
VWidth: 0
GlyphClass: 4
Flags: HW
PickledData: "(dp1
S'org.robofab.postScriptHintData'
p2
(dp3
sS'com.typemytype.robofont.layerData'
p4
(dp5
s."
AnchorPoint: "top" 201 521 mark 0
LayerCount: 2
Fore
SplineSet
80 629 m 257
 137 629 l 257
 137 673 168 693 199 693 c 256
 230 693 263 673 263 629 c 257
 319 629 l 257
 319 709 266 748 199 748 c 256
 132 748 80 710 80 629 c 257
EndSplineSet
EndChar

StartChar: brokenbar
Encoding: 166 166 161
Width: 323
VWidth: 0
GlyphClass: 2
Flags: HW
PickledData: "(dp1
S'org.pippin.gimp.org.kernagic'
p2
(dp3
S'lstem'
p4
I0
sS'rstem'
p5
I0
ssS'com.typemytype.robofont.layerData'
p6
(dp7
S'b'
(dp8
S'name'
p9
S'brokenbar'
p10
sS'lib'
p11
(dp12
sS'unicodes'
p13
(tsS'width'
p14
I653
sS'contours'
p15
(tsS'components'
p16
(tsS'anchors'
p17
(tsssS'org.robofab.postScriptHintData'
p18
(dp19
s."
LayerCount: 2
Fore
SplineSet
130 767 m 257
 130 400 l 257
 195 400 l 257
 195 767 l 257
 130 767 l 257
130 259 m 257
 130 -110 l 257
 195 -110 l 257
 195 259 l 257
 130 259 l 257
EndSplineSet
EndChar

StartChar: bullet
Encoding: 8226 8226 162
Width: 445
VWidth: 0
GlyphClass: 2
Flags: HW
PickledData: "(dp1
S'org.pippin.gimp.org.kernagic'
p2
(dp3
S'lstem'
p4
I0
sS'rstem'
p5
I0
ssS'com.typemytype.robofont.layerData'
p6
(dp7
S'b'
(dp8
S'name'
p9
S'bullet'
p10
sS'lib'
p11
(dp12
sS'unicodes'
p13
(tsS'width'
p14
I908
sS'contours'
p15
(tsS'components'
p16
(tsS'anchors'
p17
(tsssS'org.robofab.postScriptHintData'
p18
(dp19
s."
LayerCount: 2
Fore
SplineSet
217 199 m 256
 300 199 375 259 375 362 c 256
 375 464 302 523 220 523 c 256
 137 523 63 462 63 359 c 256
 63 257 135 199 217 199 c 256
EndSplineSet
EndChar

StartChar: c
Encoding: 99 99 163
Width: 532
VWidth: 0
GlyphClass: 2
Flags: HW
PickledData: "(dp1
S'org.pippin.gimp.org.kernagic'
p2
(dp3
S'lstem'
p4
I0
sS'rstem'
p5
I696
ssS'com.typemytype.robofont.layerData'
p6
(dp7
sS'com.typemytype.robofont.guides'
p8
((dp9
S'y'
I417
sS'x'
I962
sS'magnetic'
p10
I5
sS'angle'
p11
F90
sS'isGlobal'
p12
I00
s(dp13
S'y'
I1020
sS'x'
I565
sg10
I5
sg11
F90
sg12
I00
s(dp14
S'y'
I994
sS'x'
I572
sg10
I5
sg11
F90
sg12
I00
stp15
sS'com.fontlab.hintData'
p16
(dp17
S'vhints'
p18
((dp19
S'position'
p20
I128
sS'width'
p21
I120
stp22
sS'hhints'
p23
((dp24
g20
I-19
sg21
I92
s(dp25
g20
I982
sg21
I92
stp26
ssS'org.robofab.postScriptHintData'
p27
(dp28
s."
HStem: -9 45 479 45
VStem: 62 59
AnchorPoint: "top" 304 529 basechar 0
AnchorPoint: "bot" 296 0 basechar 0
LayerCount: 2
Fore
SplineSet
426 133 m 257
 402 89 368 57 302 57 c 258
 301 57 l 258
 200 57 149 135 149 265 c 256
 149 396 201 473 302 473 c 256
 368 473 403 440 427 396 c 257
 433 396 l 257
 488 428 l 257
 465 482 414 540 298 540 c 256
 151 540 58 433 58 265 c 256
 58 97 151 -10 298 -10 c 256
 414 -10 466 49 488 103 c 257
 433 133 l 257
 426 133 l 257
EndSplineSet
EndChar

StartChar: caron
Encoding: 711 711 165
Width: 438
VWidth: 0
GlyphClass: 4
Flags: HW
PickledData: "(dp1
S'org.robofab.postScriptHintData'
p2
(dp3
sS'com.typemytype.robofont.layerData'
p4
(dp5
s."
AnchorPoint: "top" 217 528 mark 0
LayerCount: 2
Fore
SplineSet
163 604 m 257
 257 604 l 257
 353 774 l 257
 276 774 l 257
 210 662 l 257
 144 774 l 257
 67 774 l 257
 163 604 l 257
EndSplineSet
EndChar

StartChar: caron.alt
Encoding: 65536 -1 166
Width: 358
VWidth: 0
GlyphClass: 4
Flags: HW
PickledData: "(dp1
S'org.robofab.postScriptHintData'
p2
(dp3
sS'com.typemytype.robofont.layerData'
p4
(dp5
s."
AnchorPoint: "caron.alt" 105 528 mark 0
LayerCount: 2
Fore
SplineSet
226 566 m 257
 291 566 l 257
 330 753 l 257
 243 753 l 257
 226 566 l 257
EndSplineSet
EndChar

StartChar: cedilla
Encoding: 184 184 171
Width: 334
VWidth: 0
GlyphClass: 4
Flags: HW
PickledData: "(dp1
S'org.robofab.postScriptHintData'
p2
(dp3
sS'com.typemytype.robofont.layerData'
p4
(dp5
s."
AnchorPoint: "bot" 196 5 mark 0
LayerCount: 2
Fore
SplineSet
173 -196 m 256
 243 -196 295 -159 295 -99 c 256
 295 -46 259 -20 213 -20 c 256
 197 -20 180 -22 162 -29 c 257
 162 -55 l 257
 172 -53 181 -52 189 -52 c 256
 231 -52 242 -75 242 -96 c 256
 242 -133 210 -152 170 -152 c 256
 151 -152 131 -148 111 -139 c 257
 96 -180 l 257
 120 -191 146 -196 173 -196 c 256
EndSplineSet
EndChar

StartChar: cent
Encoding: 162 162 172
Width: 525
VWidth: 0
GlyphClass: 2
Flags: HW
PickledData: "(dp1
S'org.pippin.gimp.org.kernagic'
p2
(dp3
S'lstem'
p4
I0
sS'rstem'
p5
I0
ssS'com.typemytype.robofont.layerData'
p6
(dp7
sS'org.robofab.postScriptHintData'
p8
(dp9
s."
LayerCount: 2
Fore
SplineSet
263 17 m 257
 263 -151 l 257
 320 -151 l 257
 329 17 l 257
 263 17 l 257
269 678 m 257
 263 518 l 257
 323 518 l 257
 324 678 l 257
 269 678 l 257
EndSplineSet
Refer: 163 99 N 1 0 0 1 0 0 2
EndChar

StartChar: circumflex
Encoding: 710 710 173
Width: 432
VWidth: 0
GlyphClass: 4
Flags: HW
PickledData: "(dp1
S'org.robofab.postScriptHintData'
p2
(dp3
sS'com.typemytype.robofont.layerData'
p4
(dp5
s."
AnchorPoint: "top" 212 528 mark 0
LayerCount: 2
Fore
SplineSet
66 611 m 257
 143 611 l 257
 210 723 l 257
 276 611 l 257
 353 611 l 257
 257 780 l 257
 163 780 l 257
 66 611 l 257
EndSplineSet
EndChar

StartChar: colon
Encoding: 58 58 174
Width: 321
VWidth: 0
GlyphClass: 2
Flags: HW
PickledData: "(dp1
S'org.pippin.gimp.org.kernagic'
p2
(dp3
S'lstem'
p4
I0
sS'rstem'
p5
I0
ssS'com.typemytype.robofont.layerData'
p6
(dp7
S'b'
(dp8
S'name'
p9
S'colon'
p10
sS'lib'
p11
(dp12
sS'unicodes'
p13
(tsS'width'
p14
I653
sS'contours'
p15
(tsS'components'
p16
(tsS'anchors'
p17
(tsssS'org.robofab.postScriptHintData'
p18
(dp19
s."
LayerCount: 2
Fore
SplineSet
159 -5 m 256
 200 -5 219 25 219 57 c 256
 219 89 200 119 159 119 c 256
 118 119 98 89 98 57 c 256
 98 25 118 -5 159 -5 c 256
159 407 m 256
 200 407 219 436 219 468 c 256
 219 500 200 530 159 530 c 256
 118 530 98 500 98 468 c 256
 98 436 118 407 159 407 c 256
EndSplineSet
EndChar

StartChar: comma
Encoding: 44 44 175
Width: 307
VWidth: 0
GlyphClass: 2
Flags: HW
PickledData: "(dp1
S'org.pippin.gimp.org.kernagic'
p2
(dp3
S'lstem'
p4
I0
sS'rstem'
p5
I0
ssS'com.typemytype.robofont.layerData'
p6
(dp7
sS'org.robofab.postScriptHintData'
p8
(dp9
s."
LayerCount: 2
Fore
SplineSet
94 -149 m 257
 146 -149 l 257
 204 72 l 257
 204 117 l 257
 114 117 l 257
 114 114 94 -149 94 -149 c 257
EndSplineSet
EndChar

StartChar: uni0326
Encoding: 806 806 176
Width: 298
VWidth: 0
GlyphClass: 4
Flags: HW
PickledData: "(dp1
S'org.robofab.postScriptHintData'
p2
(dp3
s."
AnchorPoint: "bot" 161 0 mark 0
LayerCount: 2
Fore
SplineSet
95 -255 m 257
 154 -255 l 257
 154 -255 203 -86 203 -65 c 257
 118 -65 l 257
 118 -99 95 -255 95 -255 c 257
EndSplineSet
EndChar

StartChar: uni0312
Encoding: 786 786 177
Width: 292
VWidth: 0
GlyphClass: 4
Flags: HW
PickledData: "(dp1
S'org.robofab.postScriptHintData'
p2
(dp3
s."
AnchorPoint: "top" 145 521 mark 0
LayerCount: 2
Fore
SplineSet
97 637 m 257
 95 626 l 257
 191 626 l 257
 191 660 207 871 207 871 c 257
 148 871 l 257
 148 871 97 657 97 637 c 257
EndSplineSet
EndChar

StartChar: copyright
Encoding: 169 169 178
Width: 835
VWidth: 0
GlyphClass: 2
Flags: HW
PickledData: "(dp1
S'org.pippin.gimp.org.kernagic'
p2
(dp3
S'lstem'
p4
I0
sS'rstem'
p5
I0
ssS'com.typemytype.robofont.layerData'
p6
(dp7
sS'org.robofab.postScriptHintData'
p8
(dp9
s."
LayerCount: 2
Fore
SplineSet
374 -11 m 256
 563 -11 749 118 749 355 c 256
 749 594 562 722 374 722 c 256
 187 722 5 594 5 355 c 256
 5 118 187 -11 374 -11 c 256
374 33 m 256
 211 33 56 147 56 355 c 256
 56 563 211 677 374 677 c 256
 538 677 694 563 694 355 c 256
 694 148 538 33 374 33 c 256
383 115 m 256
 432 115 480 129 522 155 c 257
 504 198 l 257
 462 173 425 164 386 164 c 256
 290 164 213 236 213 356 c 256
 213 468 289 544 382 544 c 256
 418 544 463 532 499 507 c 257
 521 551 l 257
 478 579 430 594 380 594 c 256
 255 594 150 493 150 354 c 256
 150 211 258 115 383 115 c 256
EndSplineSet
EndChar

StartChar: currency
Encoding: 164 164 179
Width: 565
VWidth: 0
GlyphClass: 2
Flags: HW
PickledData: "(dp1
S'org.pippin.gimp.org.kernagic'
p2
(dp3
S'lstem'
p4
I0
sS'rstem'
p5
I0
ssS'com.typemytype.robofont.layerData'
p6
(dp7
S'b'
(dp8
S'name'
p9
S'currency'
p10
sS'lib'
p11
(dp12
sS'unicodes'
p13
(tsS'width'
p14
I1164
sS'contours'
p15
(tsS'components'
p16
(tsS'anchors'
p17
(tsssS'org.robofab.postScriptHintData'
p18
(dp19
s."
LayerCount: 2
Fore
SplineSet
428 352 m 256
 428 269 371 198 281 198 c 256
 192 198 134 269 134 352 c 256
 134 435 192 507 281 507 c 256
 370 507 428 435 428 352 c 256
407 509 m 257
 372 538 328 555 281 555 c 256
 234 555 190 539 155 510 c 257
 68 594 l 257
 35 561 l 257
 123 474 l 257
 97 438 84 396 84 352 c 256
 84 308 98 266 123 231 c 257
 35 145 l 257
 68 110 l 257
 155 195 l 257
 190 166 233 150 281 150 c 256
 329 150 372 167 407 195 c 257
 495 110 l 257
 526 145 l 257
 439 231 l 257
 464 266 478 307 478 352 c 256
 478 395 465 437 439 474 c 257
 527 560 l 257
 495 594 l 257
 407 509 l 257
EndSplineSet
EndChar

StartChar: d
Encoding: 100 100 180
Width: 601
VWidth: 0
GlyphClass: 2
Flags: HW
PickledData: "(dp1
S'org.pippin.gimp.org.kernagic'
p2
(dp3
S'lstem'
p4
I0
sS'rstem'
p5
I0
ssS'com.typemytype.robofont.layerData'
p6
(dp7
sS'com.fontlab.hintData'
p8
(dp9
S'vhints'
p10
((dp11
S'position'
p12
I114
sS'width'
p13
I166
s(dp14
g12
I907
sg13
I161
s(dp15
g12
I930
sg13
I138
stp16
sS'hhints'
p17
((dp18
g12
I-19
sg13
I127
s(dp19
g12
I953
sg13
I127
stp20
ssS'org.robofab.postScriptHintData'
p21
(dp22
s."
HStem: -9 62 465 62
VStem: 56 81 443 79 454 67
AnchorPoint: "top" 263 528 basechar 0
AnchorPoint: "caron.alt" 557 586 basechar 0
LayerCount: 2
Fore
SplineSet
294 56 m 256
 195 56 149 134 149 267 c 256
 149 397 197 474 294 474 c 256
 351 474 401 453 428 413 c 257
 428 112 l 257
 397 74 349 56 294 56 c 256
285 -10 m 256
 338 -10 397 13 436 58 c 257
 440 0 l 257
 517 0 l 257
 517 762 l 257
 425 752 l 257
 425 563 l 257
 428 484 l 257
 398 516 353 539 292 539 c 258
 288 539 l 257
 285 539 l 258
 143 539 58 431 58 266 c 256
 58 103 137 -10 285 -10 c 256
EndSplineSet
EndChar

StartChar: dagger
Encoding: 8224 8224 181
Width: 517
VWidth: 0
GlyphClass: 2
Flags: HW
PickledData: "(dp1
S'org.pippin.gimp.org.kernagic'
p2
(dp3
S'lstem'
p4
I0
sS'rstem'
p5
I0
ssS'com.typemytype.robofont.layerData'
p6
(dp7
S'b'
(dp8
S'name'
p9
S'dagger'
p10
sS'lib'
p11
(dp12
sS'unicodes'
p13
(tsS'width'
p14
I1050
sS'contours'
p15
(tsS'components'
p16
(tsS'anchors'
p17
(tsssS'org.robofab.postScriptHintData'
p18
(dp19
s."
LayerCount: 2
Fore
SplineSet
225 728 m 257
 225 542 l 257
 84 542 l 257
 84 487 l 257
 225 487 l 257
 225 47 l 257
 288 47 l 257
 288 487 l 257
 432 487 l 257
 432 542 l 257
 288 542 l 257
 288 728 l 257
 225 728 l 257
EndSplineSet
EndChar

StartChar: daggerdbl
Encoding: 8225 8225 182
Width: 503
VWidth: 0
GlyphClass: 2
Flags: HW
PickledData: "(dp1
S'org.pippin.gimp.org.kernagic'
p2
(dp3
S'lstem'
p4
I0
sS'rstem'
p5
I0
ssS'com.typemytype.robofont.layerData'
p6
(dp7
S'b'
(dp8
S'name'
p9
S'daggerdbl'
p10
sS'lib'
p11
(dp12
sS'unicodes'
p13
(tsS'width'
p14
I1022
sS'contours'
p15
(tsS'components'
p16
(tsS'anchors'
p17
(tsssS'org.robofab.postScriptHintData'
p18
(dp19
s."
LayerCount: 2
Fore
SplineSet
224 719 m 257
 224 532 l 257
 87 532 l 257
 87 479 l 257
 224 479 l 257
 224 268 l 257
 87 268 l 257
 87 217 l 257
 224 217 l 257
 224 28 l 257
 287 28 l 257
 287 217 l 257
 422 217 l 257
 422 268 l 257
 288 268 l 257
 288 479 l 257
 422 479 l 257
 422 532 l 257
 286 532 l 257
 286 719 l 257
 224 719 l 257
EndSplineSet
EndChar

StartChar: uni030F
Encoding: 783 783 183
Width: 434
VWidth: 0
GlyphClass: 4
Flags: HW
PickledData: "(dp1
S'org.robofab.postScriptHintData'
p2
(dp3
sS'com.typemytype.robofont.layerData'
p4
(dp5
s."
AnchorPoint: "top" 236 521 mark 0
LayerCount: 2
Fore
SplineSet
273 609 m 257
 328 609 l 257
 264 780 l 257
 182 780 l 257
 273 609 l 257
139 609 m 257
 192 609 l 257
 119 780 l 257
 29 780 l 257
 139 609 l 257
EndSplineSet
EndChar

StartChar: degree
Encoding: 176 176 186
Width: 427
VWidth: 0
GlyphClass: 2
Flags: HW
PickledData: "(dp1
S'org.pippin.gimp.org.kernagic'
p2
(dp3
S'lstem'
p4
I0
sS'rstem'
p5
I0
ssS'com.typemytype.robofont.layerData'
p6
(dp7
sS'org.robofab.postScriptHintData'
p8
(dp9
s."
LayerCount: 2
Fore
SplineSet
209 435 m 256
 291 435 357 498 357 580 c 256
 357 664 289 722 209 722 c 256
 130 722 63 664 63 580 c 256
 63 495 130 435 209 435 c 256
209 484 m 256
 159 484 119 522 119 579 c 256
 119 635 160 673 210 673 c 256
 260 673 302 635 302 579 c 256
 302 522 260 484 209 484 c 256
EndSplineSet
EndChar

StartChar: dieresis
Encoding: 168 168 187
Width: 456
VWidth: 0
GlyphClass: 4
Flags: HW
PickledData: "(dp1
S'org.robofab.postScriptHintData'
p2
(dp3
sS'com.typemytype.robofont.layerData'
p4
(dp5
s."
AnchorPoint: "top" 227 528 mark 0
LayerCount: 2
Fore
SplineSet
329 630 m 256
 365 630 381 653 381 683 c 256
 381 712 365 736 329 736 c 256
 292 736 276 712 276 683 c 256
 276 653 293 630 329 630 c 256
117 630 m 256
 153 630 168 653 168 683 c 256
 168 712 153 736 117 736 c 256
 80 736 64 712 64 683 c 256
 64 653 81 630 117 630 c 256
EndSplineSet
EndChar

StartChar: divide
Encoding: 247 247 188
Width: 573
VWidth: 0
GlyphClass: 2
Flags: HW
PickledData: "(dp1
S'org.pippin.gimp.org.kernagic'
p2
(dp3
S'lstem'
p4
I0
sS'rstem'
p5
I0
ssS'com.typemytype.robofont.layerData'
p6
(dp7
sS'org.robofab.postScriptHintData'
p8
(dp9
s."
LayerCount: 2
Fore
SplineSet
237 538 m 257
 237 435 l 257
 336 435 l 257
 336 538 l 257
 237 538 l 257
237 120 m 257
 237 15 l 257
 334 15 l 257
 334 120 l 257
 237 120 l 257
50 317 m 257
 50 247 l 257
 521 247 l 257
 521 317 l 257
 50 317 l 257
EndSplineSet
EndChar

StartChar: dollar
Encoding: 36 36 189
Width: 596
VWidth: 0
GlyphClass: 2
Flags: HW
PickledData: "(dp1
S'org.pippin.gimp.org.kernagic'
p2
(dp3
S'lstem'
p4
I0
sS'rstem'
p5
I0
ssS'com.typemytype.robofont.layerData'
p6
(dp7
S'b'
(dp8
S'name'
p9
S'dollar'
p10
sS'lib'
p11
(dp12
sS'unicodes'
p13
(tsS'width'
p14
I1221
sS'contours'
p15
(tsS'components'
p16
(tsS'anchors'
p17
(tsssS'org.robofab.postScriptHintData'
p18
(dp19
s."
LayerCount: 2
Fore
SplineSet
267 21 m 257
 267 -145 l 257
 326 -145 l 257
 333 21 l 257
 267 21 l 257
275 862 m 257
 267 697 l 257
 337 697 l 257
 337 862 l 257
 275 862 l 257
EndSplineSet
Refer: 92 83 N 1 0 0 1 0 0 2
EndChar

StartChar: dotaccent
Encoding: 729 729 190
Width: 221
VWidth: 0
GlyphClass: 4
Flags: HW
PickledData: "(dp1
S'org.robofab.postScriptHintData'
p2
(dp3
sS'com.typemytype.robofont.layerData'
p4
(dp5
s."
AnchorPoint: "top" 110 528 mark 0
LayerCount: 2
Fore
SplineSet
175 699 m 256
 175 737 151 760 110 760 c 256
 69 760 46 737 46 699 c 256
 46 660 69 636 110 636 c 256
 151 636 175 660 175 699 c 256
EndSplineSet
EndChar

StartChar: dotlessi
Encoding: 305 305 191
Width: 257
VWidth: 0
GlyphClass: 2
Flags: HW
PickledData: "(dp1
S'org.pippin.gimp.org.kernagic'
p2
(dp3
S'lstem'
p4
I0
sS'rstem'
p5
I0
ssS'com.typemytype.robofont.layerData'
p6
(dp7
sS'org.robofab.postScriptHintData'
p8
(dp9
s."
AnchorPoint: "top" 137 528 basechar 0
LayerCount: 2
Fore
SplineSet
89 528 m 257
 89 0 l 257
 178 0 l 257
 178 528 l 257
 89 528 l 257
EndSplineSet
EndChar

StartChar: uni0237
Encoding: 567 567 192
Width: 290
VWidth: 0
GlyphClass: 2
Flags: HW
PickledData: "(dp1
S'org.pippin.gimp.org.kernagic'
p2
(dp3
S'lstem'
p4
I0
sS'rstem'
p5
I0
ssS'com.typemytype.robofont.layerData'
p6
(dp7
sS'com.fontlab.hintData'
p8
(dp9
S'vhints'
p10
((dp11
S'position'
p12
I111
sS'width'
p13
I142
stp14
sS'hhints'
p15
((dp16
g12
I-479
sg13
I112
stp17
ssS'org.robofab.postScriptHintData'
p18
(dp19
s."
HStem: -234 55
VStem: 54 69
AnchorPoint: "top" 164 528 basechar 0
LayerCount: 2
Fore
SplineSet
118 528 m 257
 118 9 l 258
 118 -82 116 -99 42 -116 c 258
 10 -124 l 257
 24 -193 l 257
 55 -188 l 257
 164 -171 207 -134 207 -6 c 258
 207 528 l 257
 118 528 l 257
EndSplineSet
EndChar

StartChar: e
Encoding: 101 101 193
Width: 558
VWidth: 0
GlyphClass: 2
Flags: HW
PickledData: "(dp1
S'org.pippin.gimp.org.kernagic'
p2
(dp3
S'lstem'
p4
I0
sS'rstem'
p5
I747
ssS'com.typemytype.robofont.layerData'
p6
(dp7
sS'com.fontlab.hintData'
p8
(dp9
S'hhints'
p10
((dp11
S'position'
p12
I-19
sS'width'
p13
I94
s(dp14
g12
I982
sg13
I92
stp15
ssS'org.robofab.postScriptHintData'
p16
(dp17
s."
HStem: -9 46 479 45
AnchorPoint: "top" 305 528 basechar 0
AnchorPoint: "bot" 308 0 basechar 0
LayerCount: 2
Fore
SplineSet
151 306 m 257
 160 410 220 474 305 474 c 256
 389 474 430 412 431 306 c 257
 151 306 l 257
502 249 m 257
 502 250 507 288 507 303 c 256
 507 449 430 540 301 540 c 256
 168 540 59 439 59 263 c 256
 59 94 169 -10 312 -10 c 256
 386 -10 449 12 492 42 c 257
 472 101 l 257
 465 101 l 257
 422 76 384 56 323 56 c 256
 228 56 157 114 149 249 c 257
 502 249 l 257
EndSplineSet
EndChar

StartChar: eight
Encoding: 56 56 201
Width: 615
VWidth: 0
GlyphClass: 2
Flags: HW
PickledData: "(dp1
S'org.pippin.gimp.org.kernagic'
p2
(dp3
S'lstem'
p4
I0
sS'rstem'
p5
I0
ssS'com.typemytype.robofont.layerData'
p6
(dp7
sS'org.robofab.postScriptHintData'
p8
(dp9
s."
LayerCount: 2
Fore
SplineSet
308 400 m 257
 221 421 175 469 175 545 c 256
 175 614 229 655 308 655 c 256
 388 655 439 614 439 545 c 256
 439 469 396 421 308 400 c 257
308 59 m 256
 211 59 159 103 159 186 c 256
 159 272 224 320 308 340 c 257
 393 320 455 270 455 187 c 256
 455 101 408 59 308 59 c 256
308 -10 m 256
 438 -10 541 52 541 179 c 256
 541 272 484 345 397 374 c 257
 474 403 526 456 526 544 c 256
 526 658 435 721 308 721 c 256
 181 721 88 658 88 544 c 256
 88 456 145 398 220 373 c 257
 128 341 74 279 74 179 c 256
 74 52 179 -10 308 -10 c 256
EndSplineSet
EndChar

StartChar: emdash
Encoding: 8212 8212 204
Width: 1039
VWidth: 0
GlyphClass: 2
Flags: HW
PickledData: "(dp1
S'org.robofab.postScriptHintData'
p2
(dp3
sS'com.typemytype.robofont.layerData'
p4
(dp5
s."
LayerCount: 2
Fore
SplineSet
29 251 m 257
 1010 251 l 257
 1010 321 l 257
 29 321 l 257
 29 251 l 257
EndSplineSet
EndChar

StartChar: endash
Encoding: 8211 8211 205
Width: 644
VWidth: 0
GlyphClass: 2
Flags: HW
PickledData: "(dp1
S'org.pippin.gimp.org.kernagic'
p2
(dp3
S'lstem'
p4
I0
sS'rstem'
p5
I0
ssS'com.typemytype.robofont.layerData'
p6
(dp7
sS'org.robofab.postScriptHintData'
p8
(dp9
s."
LayerCount: 2
Fore
SplineSet
35 255 m 257
 609 255 l 257
 609 319 l 257
 35 319 l 257
 35 255 l 257
EndSplineSet
EndChar

StartChar: eng
Encoding: 331 331 206
Width: 584
VWidth: 0
GlyphClass: 2
Flags: HW
PickledData: "(dp1
S'org.robofab.postScriptHintData'
p2
(dp3
sS'com.typemytype.robofont.layerData'
p4
(dp5
s."
LayerCount: 2
Fore
SplineSet
427 62 m 257
 427 -5 l 257
 427 -110 409 -143 228 -143 c 257
 229 -212 l 257
 446 -212 515 -168 515 -7 c 258
 515 62 l 257
 427 62 l 257
EndSplineSet
Refer: 274 110 N 1 0 0 1 0 0 2
EndChar

StartChar: equal
Encoding: 61 61 208
Width: 522
VWidth: 0
GlyphClass: 2
Flags: HW
PickledData: "(dp1
S'org.pippin.gimp.org.kernagic'
p2
(dp3
S'lstem'
p4
I0
sS'rstem'
p5
I0
ssS'com.typemytype.robofont.layerData'
p6
(dp7
S'b'
(dp8
S'name'
p9
S'equal'
p10
sS'lib'
p11
(dp12
sS'unicodes'
p13
(tsS'width'
p14
I1050
sS'contours'
p15
(tsS'components'
p16
(tsS'anchors'
p17
(tsssS'org.robofab.postScriptHintData'
p18
(dp19
s."
LayerCount: 2
Fore
SplineSet
62 278 m 257
 62 203 l 257
 463 203 l 257
 463 278 l 257
 62 278 l 257
62 467 m 257
 62 393 l 257
 463 393 l 257
 463 467 l 257
 62 467 l 257
EndSplineSet
EndChar

StartChar: estimated
Encoding: 8494 8494 209
Width: 594
VWidth: 0
GlyphClass: 2
Flags: HW
PickledData: "(dp1
S'org.robofab.postScriptHintData'
p2
(dp3
sS'com.typemytype.robofont.layerData'
p4
(dp5
S'b'
(dp6
S'name'
p7
S'estimated'
p8
sS'lib'
p9
(dp10
sS'unicodes'
p11
(tsS'width'
p12
I1223
sS'contours'
p13
(tsS'components'
p14
(tsS'anchors'
p15
(tsss."
LayerCount: 2
Fore
SplineSet
490 293 m 257
 159 293 l 257
 166 420 238 507 322 507 c 256
 424 507 490 407 490 293 c 257
50 264 m 256
 50 108 141 -10 328 -10 c 256
 429 -10 495 34 543 92 c 257
 518 117 l 257
 470 66 416 26 328 26 c 256
 216 26 158 119 158 254 c 257
 547 254 l 257
 547 423 475 537 319 537 c 256
 162 537 50 420 50 264 c 256
EndSplineSet
EndChar

StartChar: eth
Encoding: 240 240 210
Width: 593
VWidth: 0
GlyphClass: 2
Flags: HW
PickledData: "(dp1
S'org.pippin.gimp.org.kernagic'
p2
(dp3
S'lstem'
p4
I0
sS'rstem'
p5
I0
ssS'com.typemytype.robofont.layerData'
p6
(dp7
sS'org.robofab.postScriptHintData'
p8
(dp9
s."
LayerCount: 2
Fore
SplineSet
459 242 m 256
 459 130 403 57 295 57 c 256
 185 57 131 145 131 238 c 256
 131 338 190 413 292 413 c 256
 399 413 459 330 459 242 c 256
109 771 m 257
 213 670 l 257
 107 628 l 257
 131 571 l 257
 255 620 l 257
 337 538 386 474 411 428 c 257
 383 449 351 476 284 476 c 256
 147 476 49 381 49 239 c 256
 49 107 134 -10 292 -10 c 256
 454 -10 536 96 536 239 c 256
 536 306 519 375 494 425 c 256
 461 488 411 551 322 649 c 257
 443 695 l 257
 419 751 l 257
 279 697 l 257
 206 771 l 257
 109 771 l 257
EndSplineSet
EndChar

StartChar: exclam
Encoding: 33 33 211
Width: 349
VWidth: 0
GlyphClass: 2
Flags: HW
PickledData: "(dp1
S'org.pippin.gimp.org.kernagic'
p2
(dp3
S'lstem'
p4
I0
sS'rstem'
p5
I0
ssS'com.typemytype.robofont.layerData'
p6
(dp7
sS'org.robofab.postScriptHintData'
p8
(dp9
s."
LayerCount: 2
Fore
SplineSet
170 -6 m 256
 210 -6 228 23 228 54 c 256
 228 83 210 113 170 113 c 256
 130 113 112 83 112 54 c 256
 112 24 130 -6 170 -6 c 256
152 211 m 257
 188 211 l 257
 213 651 l 257
 213 716 l 257
 124 716 l 257
 124 651 l 257
 152 211 l 257
EndSplineSet
EndChar

StartChar: f
Encoding: 102 102 213
Width: 371
VWidth: 0
GlyphClass: 2
Flags: HW
PickledData: "(dp1
S'org.pippin.gimp.org.kernagic'
p2
(dp3
S'lstem'
p4
I182
sS'rstem'
p5
I417
ssS'com.typemytype.robofont.layerData'
p6
(dp7
sS'com.fontlab.hintData'
p8
(dp9
S'vhints'
p10
((dp11
S'position'
p12
I269
sS'width'
p13
I166
stp14
sS'hhints'
p15
((dp16
g12
I952
sg13
I89
s(dp17
g12
I1358
sg13
I122
stp18
ssS'org.robofab.postScriptHintData'
p19
(dp20
s."
HStem: 465 43 663 60
VStem: 131 81
AnchorPoint: "top" 190 711 basechar 0
LayerCount: 2
Fore
SplineSet
214 528 m 257
 214 567 l 258
 214 655 231 676 300 676 c 256
 317 676 348 672 351 672 c 257
 357 732 l 257
 356 732 323 741 283 741 c 258
 276 741 l 258
 180 741 125 712 125 567 c 258
 125 527 l 257
 35 520 l 257
 33 474 l 257
 125 474 l 257
 125 0 l 257
 214 0 l 257
 214 474 l 257
 348 474 l 257
 348 528 l 257
 214 528 l 257
EndSplineSet
EndChar

StartChar: five
Encoding: 53 53 214
Width: 615
VWidth: 0
GlyphClass: 2
Flags: HW
PickledData: "(dp1
S'org.pippin.gimp.org.kernagic'
p2
(dp3
S'lstem'
p4
I0
sS'rstem'
p5
I0
ssS'com.typemytype.robofont.layerData'
p6
(dp7
sS'org.robofab.postScriptHintData'
p8
(dp9
s."
LayerCount: 2
Fore
SplineSet
325 390 m 256
 413 390 460 311 460 230 c 256
 460 147 411 66 305 66 c 256
 233 66 186 93 147 146 c 257
 140 146 l 257
 88 96 l 257
 118 47 196 -10 306 -10 c 256
 474 -10 555 110 555 230 c 256
 555 344 482 458 339 458 c 256
 284 458 242 439 208 408 c 257
 231 640 l 257
 501 640 l 257
 511 711 l 257
 147 711 l 257
 125 340 l 257
 197 329 l 257
 227 369 274 390 325 390 c 256
EndSplineSet
EndChar

StartChar: florin
Encoding: 402 402 216
Width: 504
VWidth: 0
GlyphClass: 2
Flags: HW
PickledData: "(dp1
S'org.robofab.postScriptHintData'
p2
(dp3
s."
LayerCount: 2
Fore
SplineSet
270 607 m 258
 254 526 l 257
 173 526 l 257
 165 485 l 257
 248 485 l 257
 147 59 l 257
 129 -20 137 -87 54 -87 c 256
 41 -87 26 -85 8 -82 c 257
 -2 -125 l 257
 15 -130 32 -132 48 -132 c 256
 131 -132 202 -65 231 59 c 258
 331 485 l 257
 440 485 l 257
 448 526 l 257
 340 526 l 257
 357 616 l 258
 367 667 380 713 427 713 c 258
 428 713 l 258
 457 713 470 687 471 636 c 257
 537 636 l 257
 537 730 486 758 424 758 c 256
 332 758 287 693 270 607 c 258
EndSplineSet
EndChar

StartChar: foundryicon
Encoding: 65538 -1 217
Width: 657
VWidth: 0
GlyphClass: 2
Flags: HW
PickledData: "(dp1
S'org.robofab.postScriptHintData'
p2
(dp3
s."
LayerCount: 2
Fore
SplineSet
137 1 m 257
 327 136 l 257
 521 1 l 257
 450 225 l 257
 641 369 l 257
 404 369 l 257
 327 593 l 257
 253 369 l 257
 17 369 l 257
 207 225 l 257
 137 1 l 257
237 198 m 257
 237 328 l 257
 289 328 l 257
 372 255 l 257
 372 328 l 257
 423 328 l 257
 423 198 l 257
 372 198 l 257
 289 270 l 257
 289 198 l 257
 237 198 l 257
EndSplineSet
EndChar

StartChar: four
Encoding: 52 52 218
Width: 615
VWidth: 0
GlyphClass: 2
Flags: HW
PickledData: "(dp1
S'org.pippin.gimp.org.kernagic'
p2
(dp3
S'lstem'
p4
I0
sS'rstem'
p5
I0
ssS'com.typemytype.robofont.layerData'
p6
(dp7
sS'org.robofab.postScriptHintData'
p8
(dp9
s."
LayerCount: 2
Fore
SplineSet
154 252 m 257
 379 603 l 257
 379 252 l 257
 154 252 l 257
379 0 m 257
 469 0 l 257
 469 182 l 257
 547 182 l 257
 553 253 l 257
 469 253 l 257
 469 711 l 257
 372 711 l 257
 65 253 l 257
 88 182 l 257
 379 182 l 257
 379 0 l 257
EndSplineSet
EndChar

StartChar: fraction
Encoding: 8260 8260 219
Width: 509
VWidth: 0
GlyphClass: 2
Flags: HW
PickledData: "(dp1
S'org.robofab.postScriptHintData'
p2
(dp3
s."
LayerCount: 2
Fore
SplineSet
62 0 m 257
 136 0 l 257
 454 716 l 257
 379 716 l 257
 62 0 l 257
EndSplineSet
EndChar

StartChar: g
Encoding: 103 103 220
Width: 588
VWidth: 0
GlyphClass: 2
Flags: HW
PickledData: "(dp1
S'org.pippin.gimp.org.kernagic'
p2
(dp3
S'lstem'
p4
I0
sS'rstem'
p5
I0
ssS'com.typemytype.robofont.layerData'
p6
(dp7
sS'com.fontlab.hintData'
p8
(dp9
S'vhints'
p10
((dp11
S'position'
p12
I128
sS'width'
p13
I122
s(dp14
g12
I977
sg13
I125
s(dp15
g12
I977
sg13
I36
stp16
sS'hhints'
p17
((dp18
g12
I-426
sg13
I101
s(dp19
g12
I0
sg13
I93
s(dp20
g12
I982
sg13
I92
stp21
ssS'org.robofab.postScriptHintData'
p22
(dp23
s."
HStem: -208 49 0 45 479 45
VStem: 62 60 477 61 477 18
AnchorPoint: "top" 294 528 basechar 0
LayerCount: 2
Fore
SplineSet
292 56 m 256
 192 56 146 135 146 267 c 256
 146 396 195 474 291 474 c 256
 348 474 393 453 425 408 c 257
 425 113 l 257
 397 75 348 56 292 56 c 256
284 -9 m 256
 331 -9 387 3 427 45 c 257
 427 5 l 257
 427 2 l 258
 427 -128 371 -168 272 -168 c 256
 227 -168 172 -158 131 -141 c 257
 120 -141 l 257
 112 -210 l 257
 154 -225 213 -238 273 -238 c 256
 445 -238 511 -152 511 25 c 258
 511 528 l 257
 435 528 l 257
 431 475 l 257
 401 512 353 540 286 540 c 256
 145 540 55 434 55 267 c 256
 55 97 139 -9 284 -9 c 256
EndSplineSet
EndChar

StartChar: germandbls
Encoding: 223 223 226
Width: 626
VWidth: 0
GlyphClass: 2
Flags: HW
PickledData: "(dp1
S'org.pippin.gimp.org.kernagic'
p2
(dp3
S'lstem'
p4
I0
sS'rstem'
p5
I0
ssS'com.typemytype.robofont.layerData'
p6
(dp7
S'b'
(dp8
S'name'
p9
S'germandbls'
p10
sS'lib'
p11
(dp12
sS'unicodes'
p13
(tsS'width'
p14
I1278
sS'contours'
p15
(tsS'components'
p16
(tsS'anchors'
p17
(tsssS'org.robofab.postScriptHintData'
p18
(dp19
s."
LayerCount: 2
Fore
SplineSet
416 -10 m 256
 517 -10 576 50 576 145 c 256
 576 291 386 344 386 399 c 256
 386 442 488 496 488 602 c 256
 488 697 414 758 303 758 c 256
 157 758 81 671 81 527 c 258
 81 0 l 257
 169 0 l 257
 169 527 l 258
 169 643 217 688 306 688 c 256
 370 688 404 654 404 602 c 256
 404 502 306 474 306 392 c 256
 306 295 488 248 488 144 c 256
 488 100 463 61 403 61 c 256
 351 61 297 79 271 93 c 257
 249 28 l 257
 289 8 356 -10 416 -10 c 256
EndSplineSet
EndChar

StartChar: grave
Encoding: 96 96 227
Width: 453
VWidth: 0
GlyphClass: 4
Flags: HW
PickledData: "(dp1
S'org.robofab.postScriptHintData'
p2
(dp3
sS'com.typemytype.robofont.layerData'
p4
(dp5
s."
AnchorPoint: "top" 231 521 mark 0
LayerCount: 2
Fore
SplineSet
198 590 m 257
 256 590 l 257
 161 774 l 257
 47 774 l 257
 198 590 l 257
EndSplineSet
EndChar

StartChar: greater
Encoding: 62 62 228
Width: 540
VWidth: 0
GlyphClass: 2
Flags: HW
PickledData: "(dp1
S'org.pippin.gimp.org.kernagic'
p2
(dp3
S'lstem'
p4
I0
sS'rstem'
p5
I0
ssS'com.typemytype.robofont.layerData'
p6
(dp7
S'b'
(dp8
S'name'
p9
S'greater'
p10
sS'lib'
p11
(dp12
sS'unicodes'
p13
(tsS'width'
p14
I1107
sS'contours'
p15
(tsS'components'
p16
(tsS'anchors'
p17
(tsssS'org.robofab.postScriptHintData'
p18
(dp19
s."
LayerCount: 2
Fore
SplineSet
46 504 m 257
 399 316 l 257
 45 146 l 257
 45 71 l 257
 500 291 l 257
 500 336 l 257
 46 579 l 257
 46 504 l 257
EndSplineSet
EndChar

StartChar: greaterequal
Encoding: 8805 8805 229
Width: 582
VWidth: 0
GlyphClass: 2
Flags: HW
PickledData: "(dp1
S'org.pippin.gimp.org.kernagic'
p2
(dp3
S'lstem'
p4
I0
sS'rstem'
p5
I0
ssS'com.typemytype.robofont.layerData'
p6
(dp7
S'b'
(dp8
S'name'
p9
S'greaterequal'
p10
sS'lib'
p11
(dp12
sS'unicodes'
p13
(tsS'width'
p14
I1192
sS'contours'
p15
(tsS'components'
p16
(tsS'anchors'
p17
(tsssS'org.robofab.postScriptHintData'
p18
(dp19
s."
LayerCount: 2
Fore
SplineSet
63 4 m 257
 519 4 l 257
 519 67 l 257
 63 67 l 257
 63 4 l 257
77 114 m 257
 510 349 l 257
 510 391 l 257
 78 639 l 257
 78 567 l 257
 422 370 l 257
 77 186 l 257
 77 114 l 257
EndSplineSet
EndChar

StartChar: guillemotleft
Encoding: 171 171 230
Width: 487
VWidth: 0
GlyphClass: 2
Flags: HW
PickledData: "(dp1
S'org.pippin.gimp.org.kernagic'
p2
(dp3
S'lstem'
p4
I0
sS'rstem'
p5
I0
ssS'com.typemytype.robofont.layerData'
p6
(dp7
S'b'
(dp8
S'name'
p9
S'guillemotleft'
p10
sS'lib'
p11
(dp12
sS'unicodes'
p13
(tsS'width'
p14
I994
sS'contours'
p15
(tsS'components'
p16
(tsS'anchors'
p17
(tsssS'org.robofab.postScriptHintData'
p18
(dp19
s."
LayerCount: 2
Fore
SplineSet
356 71 m 257
 434 71 l 257
 300 271 l 257
 437 468 l 257
 357 468 l 257
 216 269 l 257
 356 71 l 257
180 71 m 257
 258 71 l 257
 125 271 l 257
 262 468 l 257
 182 468 l 257
 40 269 l 257
 180 71 l 257
EndSplineSet
EndChar

StartChar: guillemotright
Encoding: 187 187 231
Width: 487
VWidth: 0
GlyphClass: 2
Flags: HW
PickledData: "(dp1
S'org.pippin.gimp.org.kernagic'
p2
(dp3
S'lstem'
p4
I0
sS'rstem'
p5
I0
ssS'com.typemytype.robofont.layerData'
p6
(dp7
sS'org.robofab.postScriptHintData'
p8
(dp9
s."
LayerCount: 2
Fore
SplineSet
297 71 m 257
 438 270 l 257
 296 468 l 257
 216 468 l 257
 353 271 l 257
 219 71 l 257
 297 71 l 257
122 71 m 257
 262 270 l 257
 121 468 l 257
 42 468 l 257
 178 271 l 257
 44 71 l 257
 122 71 l 257
EndSplineSet
EndChar

StartChar: guilsinglleft
Encoding: 8249 8249 232
Width: 307
VWidth: 0
GlyphClass: 2
Flags: HW
PickledData: "(dp1
S'org.robofab.postScriptHintData'
p2
(dp3
s."
LayerCount: 2
Fore
SplineSet
186 73 m 257
 264 73 l 257
 130 271 l 257
 268 469 l 257
 188 469 l 257
 47 270 l 257
 186 73 l 257
EndSplineSet
EndChar

StartChar: guilsinglright
Encoding: 8250 8250 233
Width: 374
VWidth: 0
GlyphClass: 2
Flags: HW
PickledData: "(dp1
S'org.pippin.gimp.org.kernagic'
p2
(dp3
S'lstem'
p4
I0
sS'rstem'
p5
I0
ssS'com.typemytype.robofont.layerData'
p6
(dp7
S'b'
(dp8
S'name'
p9
S'guilsinglright'
p10
sS'lib'
p11
(dp12
sS'unicodes'
p13
(tsS'width'
p14
I766
sS'contours'
p15
(tsS'components'
p16
(tsS'anchors'
p17
(tsssS'org.robofab.postScriptHintData'
p18
(dp19
s."
LayerCount: 2
Fore
SplineSet
75 73 m 257
 155 73 l 257
 297 279 l 257
 153 488 l 257
 73 488 l 257
 211 279 l 257
 75 73 l 257
EndSplineSet
EndChar

StartChar: h
Encoding: 104 104 234
Width: 593
VWidth: 0
GlyphClass: 2
Flags: HW
PickledData: "(dp1
S'org.pippin.gimp.org.kernagic'
p2
(dp3
S'lstem'
p4
I0
sS'rstem'
p5
I0
ssS'com.typemytype.robofont.layerData'
p6
(dp7
sS'com.fontlab.hintData'
p8
(dp9
S'vhints'
p10
((dp11
S'position'
p12
I193
sS'width'
p13
I122
s(dp14
g12
I910
sg13
I122
stp15
sS'hhints'
p16
((dp17
g12
I982
sg13
I92
stp18
ssS'org.robofab.postScriptHintData'
p19
(dp20
s."
HStem: 479 45
VStem: 94 60 444 60
AnchorPoint: "top" 325 682 basechar 0
LayerCount: 2
Fore
SplineSet
82 0 m 257
 170 0 l 257
 170 291 l 258
 170 383 207 474 324 474 c 256
 400 474 428 424 428 323 c 258
 428 0 l 257
 518 0 l 257
 518 327 l 258
 518 462 456 540 342 540 c 256
 268 540 203 513 167 430 c 257
 170 560 l 257
 170 762 l 257
 82 752 l 257
 82 0 l 257
EndSplineSet
EndChar

StartChar: hungarumlaut
Encoding: 733 733 237
Width: 396
VWidth: 0
GlyphClass: 4
Flags: HW
PickledData: "(dp1
S'org.robofab.postScriptHintData'
p2
(dp3
sS'com.typemytype.robofont.layerData'
p4
(dp5
s."
AnchorPoint: "top" 169 521 mark 0
LayerCount: 2
Fore
SplineSet
212 609 m 257
 265 609 l 257
 375 780 l 257
 285 780 l 257
 212 609 l 257
77 609 m 257
 131 609 l 257
 222 780 l 257
 141 780 l 257
 77 609 l 257
EndSplineSet
EndChar

StartChar: hyphen
Encoding: 45 45 238
Width: 420
VWidth: 0
GlyphClass: 4
Flags: HW
PickledData: "(dp1
S'org.pippin.gimp.org.kernagic'
p2
(dp3
S'lstem'
p4
I0
sS'rstem'
p5
I0
ssS'com.typemytype.robofont.layerData'
p6
(dp7
sS'org.robofab.postScriptHintData'
p8
(dp9
s."
LayerCount: 2
Fore
SplineSet
84 256 m 257
 333 256 l 257
 333 325 l 257
 84 325 l 257
 84 256 l 257
EndSplineSet
EndChar

StartChar: i
Encoding: 105 105 239
Width: 290
VWidth: 0
GlyphClass: 2
Flags: HW
PickledData: "(dp1
S'org.robofab.postScriptHintData'
p2
(dp3
sS'com.typemytype.robofont.layerData'
p4
(dp5
s."
LayerCount: 2
Fore
SplineSet
217 699 m 256
 217 737 193 760 152 760 c 256
 111 760 88 737 88 699 c 256
 88 660 111 636 152 636 c 256
 193 636 217 660 217 699 c 256
107 528 m 257
 107 0 l 257
 196 0 l 257
 196 528 l 257
 107 528 l 257
EndSplineSet
EndChar

StartChar: infinity
Encoding: 8734 8734 250
Width: 810
VWidth: 0
GlyphClass: 2
Flags: HW
PickledData: "(dp1
S'org.pippin.gimp.org.kernagic'
p2
(dp3
S'lstem'
p4
I0
sS'rstem'
p5
I0
ssS'com.typemytype.robofont.layerData'
p6
(dp7
S'b'
(dp8
S'name'
p9
S'infinity'
p10
sS'lib'
p11
(dp12
sS'unicodes'
p13
(tsS'width'
p14
I1647
sS'contours'
p15
(tsS'components'
p16
(tsS'anchors'
p17
(tsssS'org.robofab.postScriptHintData'
p18
(dp19
s."
LayerCount: 2
Fore
SplineSet
710 322 m 256
 710 246 676 187 603 187 c 256
 544 187 501 229 443 309 c 257
 485 372 537 431 601 431 c 256
 665 431 710 381 710 322 c 256
367 308 m 257
 323 242 268 187 207 187 c 256
 138 187 92 247 92 309 c 256
 92 375 135 431 204 431 c 256
 270 431 323 378 367 308 c 257
405 361 m 257
 346 441 286 494 204 494 c 256
 110 494 35 417 35 319 c 256
 35 212 98 121 206 121 c 256
 286 121 348 176 405 254 c 257
 470 165 530 121 602 121 c 256
 697 121 772 199 772 311 c 256
 772 418 711 494 603 494 c 256
 520 494 460 439 405 361 c 257
EndSplineSet
EndChar

StartChar: integral
Encoding: 8747 8747 251
Width: 474
VWidth: 0
GlyphClass: 2
Flags: HW
PickledData: "(dp1
S'org.pippin.gimp.org.kernagic'
p2
(dp3
S'lstem'
p4
I0
sS'rstem'
p5
I0
ssS'com.typemytype.robofont.layerData'
p6
(dp7
S'b'
(dp8
S'name'
p9
S'integral'
p10
sS'lib'
p11
(dp12
sS'unicodes'
p13
(tsS'width'
p14
I994
sS'contours'
p15
(tsS'components'
p16
(tsS'anchors'
p17
(tsssS'org.robofab.postScriptHintData'
p18
(dp19
s."
LayerCount: 2
Fore
SplineSet
249 564 m 258
 249 -20 l 258
 249 -101 236 -151 173 -151 c 256
 160 -151 144 -149 126 -144 c 257
 126 -198 l 257
 147 -203 166 -205 183 -205 c 256
 274 -205 313 -138 313 -16 c 258
 313 569 l 258
 313 647 325 695 382 695 c 256
 395 695 410 692 427 687 c 257
 427 738 l 257
 404 743 384 746 367 746 c 256
 281 746 249 684 249 564 c 258
EndSplineSet
EndChar

StartChar: j
Encoding: 106 106 254
Width: 286
VWidth: 0
GlyphClass: 2
Flags: HW
PickledData: "(dp1
S'org.robofab.postScriptHintData'
p2
(dp3
sS'com.typemytype.robofont.layerData'
p4
(dp5
s."
LayerCount: 2
Fore
SplineSet
220 699 m 256
 220 737 197 760 156 760 c 256
 115 760 91 737 91 699 c 256
 91 660 115 636 156 636 c 256
 197 636 220 660 220 699 c 256
117 528 m 257
 117 9 l 258
 117 -82 115 -99 41 -116 c 258
 9 -124 l 257
 23 -193 l 257
 54 -188 l 257
 163 -171 206 -134 206 -6 c 258
 206 528 l 257
 117 528 l 257
EndSplineSet
EndChar

StartChar: k
Encoding: 107 107 256
Width: 536
VWidth: 0
GlyphClass: 2
Flags: HW
PickledData: "(dp1
S'org.pippin.gimp.org.kernagic'
p2
(dp3
S'lstem'
p4
I0
sS'rstem'
p5
I671
ssS'com.typemytype.robofont.layerData'
p6
(dp7
sS'org.robofab.postScriptHintData'
p8
(dp9
s."
AnchorPoint: "bot" 291 0 basechar 0
LayerCount: 2
Fore
SplineSet
82 0 m 257
 170 0 l 257
 170 195 l 257
 229 246 l 257
 430 0 l 257
 525 0 l 257
 525 12 l 257
 292 289 l 257
 509 517 l 257
 509 528 l 257
 409 528 l 257
 167 270 l 257
 170 374 l 257
 170 762 l 257
 82 752 l 257
 82 0 l 257
EndSplineSet
EndChar

StartChar: kgreenlandic
Encoding: 312 312 258
Width: 531
VWidth: 0
GlyphClass: 2
Flags: HW
PickledData: "(dp1
S'org.robofab.postScriptHintData'
p2
(dp3
s."
LayerCount: 2
Fore
SplineSet
74 0 m 257
 159 0 l 257
 159 192 l 257
 220 245 l 257
 420 0 l 257
 514 0 l 257
 514 11 l 257
 280 288 l 257
 498 517 l 257
 498 528 l 257
 400 528 l 257
 156 266 l 257
 159 374 l 257
 159 528 l 257
 74 528 l 257
 74 0 l 257
EndSplineSet
EndChar

StartChar: l
Encoding: 108 108 259
Width: 313
VWidth: 0
GlyphClass: 2
Flags: HW
PickledData: "(dp1
S'org.pippin.gimp.org.kernagic'
p2
(dp3
S'lstem'
p4
I0
sS'rstem'
p5
I238
ssS'com.typemytype.robofont.layerData'
p6
(dp7
sS'com.fontlab.hintData'
p8
(dp9
S'vhints'
p10
((dp11
S'position'
p12
I193
sS'width'
p13
I122
stp14
sS'hhints'
p15
((dp16
g12
I-11
sg13
I87
stp17
ssS'org.robofab.postScriptHintData'
p18
(dp19
s."
HStem: -5 42
VStem: 94 60
AnchorPoint: "top" 172 733 basechar 0
LayerCount: 2
Fore
SplineSet
233 -4 m 257
 268 -4 l 257
 275 61 l 257
 245 62 l 257
 186 66 176 73 176 152 c 258
 176 762 l 257
 87 752 l 257
 87 151 l 258
 87 22 137 -4 231 -4 c 258
 233 -4 l 257
EndSplineSet
EndChar

StartChar: less
Encoding: 60 60 264
Width: 540
VWidth: 0
GlyphClass: 2
Flags: HW
PickledData: "(dp1
S'org.pippin.gimp.org.kernagic'
p2
(dp3
S'lstem'
p4
I0
sS'rstem'
p5
I0
ssS'com.typemytype.robofont.layerData'
p6
(dp7
S'b'
(dp8
S'name'
p9
S'less'
p10
sS'lib'
p11
(dp12
sS'unicodes'
p13
(tsS'width'
p14
I1107
sS'contours'
p15
(tsS'components'
p16
(tsS'anchors'
p17
(tsssS'org.robofab.postScriptHintData'
p18
(dp19
s."
LayerCount: 2
Fore
SplineSet
493 68 m 257
 493 144 l 257
 135 316 l 257
 493 502 l 257
 493 576 l 257
 38 337 l 257
 38 292 l 257
 493 68 l 257
EndSplineSet
EndChar

StartChar: lessequal
Encoding: 8804 8804 265
Width: 582
VWidth: 0
GlyphClass: 2
Flags: HW
PickledData: "(dp1
S'org.robofab.postScriptHintData'
p2
(dp3
sS'com.typemytype.robofont.layerData'
p4
(dp5
s."
LayerCount: 2
Fore
SplineSet
62 3 m 257
 518 3 l 257
 518 66 l 257
 62 67 l 257
 62 3 l 257
505 119 m 257
 505 190 l 257
 161 373 l 257
 503 567 l 257
 503 639 l 257
 71 393 l 257
 71 352 l 257
 505 119 l 257
EndSplineSet
EndChar

StartChar: logicalnot
Encoding: 172 172 266
Width: 607
VWidth: 0
GlyphClass: 2
Flags: HW
PickledData: "(dp1
S'org.pippin.gimp.org.kernagic'
p2
(dp3
S'lstem'
p4
I0
sS'rstem'
p5
I0
ssS'com.typemytype.robofont.layerData'
p6
(dp7
sS'org.robofab.postScriptHintData'
p8
(dp9
s."
LayerCount: 2
Fore
SplineSet
51 395 m 257
 51 328 l 257
 457 328 l 257
 457 124 l 257
 520 124 l 257
 520 395 l 257
 51 395 l 257
EndSplineSet
EndChar

StartChar: lozenge
Encoding: 9674 9674 267
Width: 570
VWidth: 0
GlyphClass: 2
Flags: HW
PickledData: "(dp1
S'org.pippin.gimp.org.kernagic'
p2
(dp3
S'lstem'
p4
I0
sS'rstem'
p5
I0
ssS'com.typemytype.robofont.layerData'
p6
(dp7
S'b'
(dp8
S'name'
p9
S'lozenge'
p10
sS'lib'
p11
(dp12
sS'unicodes'
p13
(tsS'width'
p14
I1164
sS'contours'
p15
(tsS'components'
p16
(tsS'anchors'
p17
(tsssS'org.robofab.postScriptHintData'
p18
(dp19
s."
LayerCount: 2
Fore
SplineSet
440 373 m 257
 431 356 295 84 286 66 c 257
 277 83 141 357 132 374 c 257
 141 391 280 662 289 679 c 257
 298 662 431 390 440 373 c 257
262 771 m 257
 59 373 l 257
 259 -23 l 257
 310 -23 l 257
 514 374 l 257
 313 771 l 257
 262 771 l 257
EndSplineSet
EndChar

StartChar: m
Encoding: 109 109 269
Width: 896
VWidth: 0
GlyphClass: 2
Flags: HW
PickledData: "(dp1
S'org.pippin.gimp.org.kernagic'
p2
(dp3
S'lstem'
p4
I0
sS'rstem'
p5
I0
ssS'com.typemytype.robofont.layerData'
p6
(dp7
sS'com.fontlab.hintData'
p8
(dp9
S'vhints'
p10
((dp11
S'position'
p12
I193
sS'width'
p13
I122
s(dp14
g12
I193
sg13
I98
s(dp15
g12
I845
sg13
I122
s(dp16
g12
I1483
sg13
I122
stp17
sS'hhints'
p18
((dp19
g12
I982
sg13
I92
stp20
ssS'org.robofab.postScriptHintData'
p21
(dp22
s."
HStem: 479 45
VStem: 94 60 94 48 413 60 724 60
AnchorPoint: "top" 468 528 basechar 0
LayerCount: 2
Fore
SplineSet
496 291 m 258
 496 408 570 474 636 474 c 256
 719 474 733 391 733 314 c 258
 733 0 l 257
 822 0 l 257
 822 340 l 258
 822 470 761 540 653 540 c 256
 577 540 514 501 479 416 c 257
 459 493 406 540 325 540 c 256
 256 540 197 506 164 425 c 257
 154 528 l 257
 80 528 l 257
 80 0 l 257
 169 0 l 257
 169 312 l 257
 181 405 227 474 307 474 c 256
 378 474 407 420 407 298 c 258
 407 0 l 257
 496 0 l 257
 496 291 l 258
EndSplineSet
EndChar

StartChar: macron
Encoding: 175 175 270
Width: 558
VWidth: 0
GlyphClass: 4
Flags: HW
PickledData: "(dp1
S'org.robofab.postScriptHintData'
p2
(dp3
sS'com.typemytype.robofont.layerData'
p4
(dp5
s."
AnchorPoint: "top" 279 521 mark 0
LayerCount: 2
Fore
SplineSet
129 648 m 257
 415 648 l 257
 415 697 l 257
 129 697 l 257
 129 648 l 257
EndSplineSet
EndChar

StartChar: minus
Encoding: 8722 8722 272
Width: 570
VWidth: 0
GlyphClass: 2
Flags: HW
PickledData: "(dp1
S'org.pippin.gimp.org.kernagic'
p2
(dp3
S'lstem'
p4
I0
sS'rstem'
p5
I0
ssS'com.typemytype.robofont.layerData'
p6
(dp7
sS'org.robofab.postScriptHintData'
p8
(dp9
s."
LayerCount: 2
Fore
SplineSet
51 325 m 257
 51 255 l 257
 522 255 l 257
 522 325 l 257
 51 325 l 257
EndSplineSet
EndChar

StartChar: multiply
Encoding: 215 215 273
Width: 485
VWidth: 0
GlyphClass: 2
Flags: HW
PickledData: "(dp1
S'org.pippin.gimp.org.kernagic'
p2
(dp3
S'lstem'
p4
I0
sS'rstem'
p5
I0
ssS'com.typemytype.robofont.layerData'
p6
(dp7
sS'org.robofab.postScriptHintData'
p8
(dp9
s."
LayerCount: 2
Fore
SplineSet
55 470 m 257
 194 319 l 257
 51 165 l 257
 98 116 l 257
 241 269 l 257
 383 116 l 257
 428 166 l 257
 428 166 301 306 288 319 c 257
 427 468 l 257
 378 518 l 257
 241 369 l 257
 102 519 l 257
 55 470 l 257
EndSplineSet
EndChar

StartChar: n
Encoding: 110 110 274
Width: 589
VWidth: 0
GlyphClass: 2
Flags: HW
PickledData: "(dp1
S'org.pippin.gimp.org.kernagic'
p2
(dp3
S'lstem'
p4
I0
sS'rstem'
p5
I0
ssS'com.typemytype.robofont.layerData'
p6
(dp7
sS'com.fontlab.hintData'
p8
(dp9
S'vhints'
p10
((dp11
S'position'
p12
I193
sS'width'
p13
I122
s(dp14
g12
I903
sg13
I122
stp15
sS'hhints'
p16
((dp17
g12
I0
sg13
I22
s(dp18
g12
I982
sg13
I92
s(dp19
g12
I1034
sg13
I21
stp20
ssS'org.robofab.postScriptHintData'
p21
(dp22
s."
HStem: 0 11 479 45 505 10
VStem: 94 60 441 60
AnchorPoint: "top" 340 528 basechar 0
AnchorPoint: "bot" 296 0 basechar 0
LayerCount: 2
Fore
SplineSet
80 0 m 257
 169 0 l 257
 169 299 l 258
 169 394 214 474 323 474 c 256
 403 474 426 414 426 325 c 258
 426 0 l 257
 515 0 l 257
 515 318 l 258
 515 461 460 540 341 540 c 256
 255 540 195 503 163 425 c 257
 154 528 l 257
 80 528 l 257
 80 0 l 257
EndSplineSet
EndChar

StartChar: nine
Encoding: 57 57 279
Width: 615
VWidth: 0
GlyphClass: 2
Flags: HW
PickledData: "(dp1
S'org.pippin.gimp.org.kernagic'
p2
(dp3
S'lstem'
p4
I0
sS'rstem'
p5
I0
ssS'com.typemytype.robofont.layerData'
p6
(dp7
sS'org.robofab.postScriptHintData'
p8
(dp9
s."
LayerCount: 2
Fore
SplineSet
472 497 m 256
 472 381 382 343 317 343 c 256
 221 343 173 410 173 496 c 256
 173 579 229 651 324 651 c 256
 419 651 472 580 472 497 c 256
172 0 m 257
 269 0 l 257
 447 229 l 257
 514 315 559 387 559 491 c 256
 559 612 473 721 323 721 c 256
 180 721 85 623 85 496 c 256
 85 364 177 275 293 275 c 256
 333 275 375 289 409 311 c 257
 332 209 251 111 172 11 c 257
 172 0 l 257
EndSplineSet
EndChar

StartChar: notequal
Encoding: 8800 8800 280
Width: 531
VWidth: 0
GlyphClass: 2
Flags: HW
PickledData: "(dp1
S'org.pippin.gimp.org.kernagic'
p2
(dp3
S'lstem'
p4
I0
sS'rstem'
p5
I0
ssS'com.typemytype.robofont.layerData'
p6
(dp7
S'b'
(dp8
S'name'
p9
S'notequal'
p10
sS'lib'
p11
(dp12
sS'unicodes'
p13
(tsS'width'
p14
I1079
sS'contours'
p15
(tsS'components'
p16
(tsS'anchors'
p17
(tsssS'org.robofab.postScriptHintData'
p18
(dp19
s."
LayerCount: 2
Fore
SplineSet
154 23 m 257
 223 171 l 257
 489 171 l 257
 486 231 l 257
 250 231 l 257
 326 381 l 257
 489 381 l 257
 485 443 l 257
 353 443 l 257
 408 579 l 257
 357 586 l 257
 291 443 l 257
 32 443 l 257
 36 382 l 257
 263 382 l 257
 189 232 l 257
 33 232 l 257
 36 171 l 257
 160 171 l 257
 104 32 l 257
 154 23 l 257
EndSplineSet
EndChar

StartChar: numbersign
Encoding: 35 35 282
Width: 565
VWidth: 0
GlyphClass: 2
Flags: HW
PickledData: "(dp1
S'org.pippin.gimp.org.kernagic'
p2
(dp3
S'lstem'
p4
I0
sS'rstem'
p5
I0
ssS'com.typemytype.robofont.layerData'
p6
(dp7
sS'org.robofab.postScriptHintData'
p8
(dp9
s."
LayerCount: 2
Fore
SplineSet
190 263 m 257
 234 482 l 257
 379 482 l 257
 335 263 l 257
 190 263 l 257
82 -9 m 257
 136 -9 l 257
 181 216 l 257
 325 216 l 257
 281 -9 l 257
 333 -9 l 257
 378 216 l 257
 488 216 l 257
 496 263 l 257
 388 263 l 257
 432 482 l 257
 534 482 l 257
 542 529 l 257
 441 529 l 257
 490 757 l 257
 438 757 l 257
 389 529 l 257
 244 529 l 257
 292 757 l 257
 238 757 l 257
 189 529 l 257
 91 529 l 257
 84 482 l 257
 180 482 l 257
 136 263 l 257
 38 263 l 257
 32 216 l 257
 127 216 l 257
 82 -9 l 257
EndSplineSet
EndChar

StartChar: o
Encoding: 111 111 283
Width: 593
VWidth: 0
GlyphClass: 2
Flags: HW
PickledData: "(dp1
S'org.pippin.gimp.org.kernagic'
p2
(dp3
S'lstem'
p4
I0
sS'rstem'
p5
I0
ssS'com.typemytype.robofont.layerData'
p6
(dp7
sS'com.typemytype.robofont.guides'
p8
((dp9
S'y'
I1093
sS'x'
I582
sS'magnetic'
p10
I5
sS'angle'
p11
F90
sS'isGlobal'
p12
I00
stp13
sS'com.fontlab.hintData'
p14
(dp15
S'vhints'
p16
((dp17
S'position'
p18
I128
sS'width'
p19
I120
s(dp20
g18
I982
sg19
I120
stp21
sS'hhints'
p22
((dp23
g18
I-19
sg19
I92
s(dp24
g18
I982
sg19
I92
stp25
ssS'org.robofab.postScriptHintData'
p26
(dp27
s."
HStem: -9 45 479 45
VStem: 62 59 479 59
AnchorPoint: "top" 297 528 basechar 0
LayerCount: 2
Fore
SplineSet
297 -10 m 256
 450 -10 536 101 536 265 c 256
 536 432 452 540 297 540 c 256
 142 540 58 432 58 265 c 256
 58 101 143 -10 297 -10 c 256
297 56 m 256
 193 56 149 144 149 264 c 256
 149 387 194 474 297 474 c 256
 400 474 444 387 444 264 c 256
 444 144 400 56 297 56 c 256
EndSplineSet
Substitution2: "Single Substitution lookup 4 subtable" ordmasculine
EndChar

StartChar: oe
Encoding: 339 339 288
Width: 932
VWidth: 0
GlyphClass: 2
Flags: HW
PickledData: "(dp1
S'org.pippin.gimp.org.kernagic'
p2
(dp3
S'lstem'
p4
I0
sS'rstem'
p5
I0
ssS'com.typemytype.robofont.layerData'
p6
(dp7
S'b'
(dp8
S'name'
p9
S'oe'
p10
sS'lib'
p11
(dp12
sS'unicodes'
p13
(tsS'width'
p14
F1915.3599999999999
sS'contours'
p15
(tsS'components'
p16
(tsS'anchors'
p17
(tsssS'org.robofab.postScriptHintData'
p18
(dp19
s."
LayerCount: 2
Fore
SplineSet
529 306 m 257
 538 410 600 475 684 475 c 256
 768 475 809 413 811 306 c 257
 529 306 l 257
290 56 m 256
 185 56 140 144 140 264 c 256
 140 387 186 474 290 474 c 256
 394 474 439 387 439 264 c 256
 439 144 394 56 290 56 c 256
884 303 m 258
 884 449 807 540 680 540 c 256
 601 540 520 492 487 416 c 257
 458 491 381 540 290 540 c 256
 136 540 52 432 52 265 c 256
 52 101 138 -10 290 -10 c 256
 380 -10 461 44 486 119 c 257
 518 42 607 -10 693 -10 c 256
 767 -10 828 13 870 42 c 257
 850 101 l 257
 844 101 l 257
 802 76 763 56 702 56 c 256
 609 56 528 110 527 249 c 257
 880 249 l 257
 880 249 884 276 884 292 c 258
 884 303 l 258
EndSplineSet
EndChar

StartChar: ogonek
Encoding: 731 731 289
Width: 374
VWidth: 0
GlyphClass: 4
Flags: HW
PickledData: "(dp1
S'org.pippin.gimp.org.kernagic'
p2
(dp3
S'lstem'
p4
I0
sS'rstem'
p5
I0
ssS'com.typemytype.robofont.layerData'
p6
(dp7
sS'org.robofab.postScriptHintData'
p8
(dp9
s."
LayerCount: 2
Fore
SplineSet
216 -207 m 256
 241 -207 272 -199 289 -191 c 257
 287 -138 l 257
 278 -142 254 -150 233 -150 c 256
 211 -150 193 -138 193 -111 c 256
 193 -74 233 -20 263 2 c 257
 222 2 l 257
 173 -19 123 -74 123 -131 c 256
 123 -177 155 -207 216 -207 c 256
EndSplineSet
EndChar

StartChar: one
Encoding: 49 49 293
Width: 615
VWidth: 0
GlyphClass: 2
Flags: HW
PickledData: "(dp1
S'org.pippin.gimp.org.kernagic'
p2
(dp3
S'lstem'
p4
I0
sS'rstem'
p5
I0
ssS'com.typemytype.robofont.layerData'
p6
(dp7
sS'org.robofab.postScriptHintData'
p8
(dp9
s."
LayerCount: 2
Fore
SplineSet
97 0 m 257
 547 0 l 257
 547 66 l 257
 377 66 l 257
 377 711 l 257
 295 711 l 257
 256 684 145 644 102 634 c 257
 102 563 l 257
 140 568 232 598 287 628 c 257
 287 66 l 257
 97 66 l 257
 97 0 l 257
EndSplineSet
EndChar

StartChar: onehalf
Encoding: 189 189 294
Width: 864
VWidth: 0
GlyphClass: 3
Flags: HW
PickledData: "(dp1
S'org.pippin.gimp.org.kernagic'
p2
(dp3
S'lstem'
p4
I0
sS'rstem'
p5
I0
ssS'com.typemytype.robofont.layerData'
p6
(dp7
sS'org.robofab.postScriptHintData'
p8
(dp9
s."
LayerCount: 2
Fore
SplineSet
184 0 m 257
 251 0 l 257
 698 722 l 257
 631 722 l 257
 184 0 l 257
67 290 m 257
 278 290 l 257
 278 346 l 257
 210 346 l 257
 210 722 l 257
 154 722 l 257
 134 704 78 678 62 671 c 257
 62 614 l 257
 75 619 122 639 140 650 c 257
 140 346 l 257
 67 346 l 257
 67 290 l 257
563 0 m 257
 813 0 l 257
 816 58 l 257
 643 58 l 257
 729 139 l 258
 791 197 820 234 820 300 c 256
 820 380 758 426 680 426 c 256
 622 426 568 396 542 350 c 257
 579 310 l 257
 607 348 641 365 679 365 c 256
 719 365 752 342 752 296 c 256
 752 262 737 234 684 179 c 258
 562 55 l 257
 563 0 l 257
EndSplineSet
Ligature2: "fracDiagonalFractionslookup11 subtable" one slash two
EndChar

StartChar: onequarter
Encoding: 188 188 295
Width: 849
VWidth: 0
GlyphClass: 3
Flags: HW
PickledData: "(dp1
S'org.pippin.gimp.org.kernagic'
p2
(dp3
S'lstem'
p4
I0
sS'rstem'
p5
I0
ssS'com.typemytype.robofont.layerData'
p6
(dp7
sS'org.robofab.postScriptHintData'
p8
(dp9
s."
LayerCount: 2
Fore
SplineSet
555 146 m 257
 680 335 l 257
 680 146 l 257
 555 146 l 257
184 0 m 257
 252 0 l 257
 699 722 l 257
 631 722 l 257
 184 0 l 257
681 0 m 257
 745 0 l 257
 745 93 l 257
 803 93 l 257
 800 146 l 257
 745 146 l 257
 745 419 l 257
 676 419 l 257
 485 141 l 257
 485 93 l 257
 681 93 l 257
 681 0 l 257
65 290 m 257
 275 290 l 257
 275 347 l 257
 208 347 l 257
 208 722 l 257
 151 722 l 257
 131 704 76 678 60 671 c 257
 60 613 l 257
 73 619 120 638 138 649 c 257
 138 347 l 257
 65 347 l 257
 65 290 l 257
EndSplineSet
Ligature2: "fracDiagonalFractionslookup11 subtable" one slash four
EndChar

StartChar: ordmasculine
Encoding: 186 186 297
Width: 471
VWidth: 0
GlyphClass: 2
Flags: HW
PickledData: "(dp1
S'org.pippin.gimp.org.kernagic'
p2
(dp3
S'lstem'
p4
I0
sS'rstem'
p5
I0
ssS'com.typemytype.robofont.layerData'
p6
(dp7
S'b'
(dp8
S'name'
p9
S'ordmasculine'
p10
sS'lib'
p11
(dp12
sS'unicodes'
p13
(tsS'width'
p14
I965
sS'contours'
p15
(tsS'components'
p16
(tsS'anchors'
p17
(tsssS'org.robofab.postScriptHintData'
p18
(dp19
s."
LayerCount: 2
Fore
SplineSet
333 534 m 256
 333 452 301 404 234 404 c 256
 171 404 139 452 139 535 c 256
 139 619 171 669 234 669 c 256
 299 669 333 618 333 534 c 256
69 535 m 256
 69 428 127 348 234 348 c 256
 336 348 400 430 400 535 c 256
 400 645 344 725 234 725 c 256
 127 725 69 644 69 535 c 256
EndSplineSet
EndChar

StartChar: oslash
Encoding: 248 248 298
Width: 588
VWidth: 0
GlyphClass: 2
Flags: HW
PickledData: "(dp1
S'org.pippin.gimp.org.kernagic'
p2
(dp3
S'lstem'
p4
I0
sS'rstem'
p5
I0
ssS'com.typemytype.robofont.layerData'
p6
(dp7
sS'org.robofab.postScriptHintData'
p8
(dp9
s."
LayerCount: 2
Fore
SplineSet
93 -61 m 257
 125 -80 l 257
 480 586 l 257
 445 605 l 257
 93 -61 l 257
EndSplineSet
Refer: 283 111 N 1 0 0 1 0 0 2
EndChar

StartChar: p
Encoding: 112 112 301
Width: 596
VWidth: 0
GlyphClass: 2
Flags: HW
PickledData: "(dp1
S'org.pippin.gimp.org.kernagic'
p2
(dp3
S'lstem'
p4
I0
sS'rstem'
p5
I0
ssS'com.typemytype.robofont.layerData'
p6
(dp7
sS'com.fontlab.hintData'
p8
(dp9
S'vhints'
p10
((dp11
S'position'
p12
I193
sS'width'
p13
I122
s(dp14
g12
I193
sg13
I97
s(dp15
g12
I1009
sg13
I122
stp16
sS'hhints'
p17
((dp18
g12
I-19
sg13
I92
s(dp19
g12
I982
sg13
I92
stp20
ssS'org.robofab.postScriptHintData'
p21
(dp22
s."
HStem: -9 45 479 45
VStem: 94 60 94 47 493 60
AnchorPoint: "top" 327 528 basechar 0
LayerCount: 2
Fore
SplineSet
308 56 m 256
 251 56 200 78 168 122 c 257
 168 281 l 257
 169 396 213 474 317 474 c 256
 416 474 448 387 448 265 c 256
 448 135 405 56 308 56 c 256
83 -224 m 257
 171 -224 l 257
 171 -33 l 257
 169 43 l 257
 202 10 251 -10 315 -10 c 256
 454 -10 539 103 539 264 c 256
 539 429 473 540 330 540 c 256
 251 540 192 499 166 419 c 257
 157 528 l 257
 83 528 l 257
 83 -224 l 257
EndSplineSet
EndChar

StartChar: paragraph
Encoding: 182 182 302
Width: 559
VWidth: 0
GlyphClass: 2
Flags: HW
PickledData: "(dp1
S'org.pippin.gimp.org.kernagic'
p2
(dp3
S'lstem'
p4
I0
sS'rstem'
p5
I0
ssS'com.typemytype.robofont.layerData'
p6
(dp7
sS'org.robofab.postScriptHintData'
p8
(dp9
s."
LayerCount: 2
Fore
SplineSet
315 650 m 257
 383 650 l 257
 383 -100 l 257
 446 -100 l 257
 446 711 l 257
 272 711 l 258
 112 711 64 625 64 542 c 256
 64 456 115 373 252 373 c 257
 252 -100 l 257
 315 -100 l 257
 315 650 l 257
EndSplineSet
EndChar

StartChar: parenright
Encoding: 41 41 304
Width: 378
VWidth: 0
GlyphClass: 2
Flags: HW
PickledData: "(dp1
S'org.pippin.gimp.org.kernagic'
p2
(dp3
S'lstem'
p4
I0
sS'rstem'
p5
I0
ssS'com.typemytype.robofont.layerData'
p6
(dp7
S'b'
(dp8
S'name'
p9
S'parenright'
p10
sS'lib'
p11
(dp12
sS'unicodes'
p13
(tsS'width'
p14
I766
sS'contours'
p15
(tsS'components'
p16
(tsS'anchors'
p17
(tsssS'org.robofab.postScriptHintData'
p18
(dp19
s."
LayerCount: 2
Fore
SplineSet
278 331 m 256
 278 491 233 647 152 777 c 257
 80 777 l 257
 80 760 l 257
 164 622 201 481 201 331 c 256
 201 181 164 40 80 -99 c 257
 80 -115 l 257
 152 -115 l 257
 233 15 278 172 278 331 c 256
EndSplineSet
EndChar

StartChar: partialdiff
Encoding: 8706 8706 305
Width: 577
VWidth: 0
GlyphClass: 2
Flags: HW
PickledData: "(dp1
S'org.robofab.postScriptHintData'
p2
(dp3
s."
LayerCount: 2
Fore
SplineSet
237 43 m 256
 197 43 178 79 178 129 c 256
 178 234 264 399 424 405 c 257
 415 265 361 43 237 43 c 256
230 -9 m 256
 397 -9 511 186 511 443 c 256
 511 643 398 762 258 762 c 256
 213 762 164 749 116 723 c 257
 135 674 l 257
 170 691 206 699 238 699 c 256
 344 699 427 614 427 472 c 256
 427 465 426 457 426 450 c 257
 204 449 80 275 80 141 c 256
 80 58 128 -9 230 -9 c 256
EndSplineSet
EndChar

StartChar: percent
Encoding: 37 37 306
Width: 792
VWidth: 0
GlyphClass: 2
Flags: HW
PickledData: "(dp1
S'org.pippin.gimp.org.kernagic'
p2
(dp3
S'lstem'
p4
I0
sS'rstem'
p5
I0
ssS'com.typemytype.robofont.layerData'
p6
(dp7
S'b'
(dp8
S'name'
p9
S'percent'
p10
sS'lib'
p11
(dp12
sS'unicodes'
p13
(tsS'width'
p14
I1563
sS'contours'
p15
(tsS'components'
p16
(tsS'anchors'
p17
(tsssS'org.robofab.postScriptHintData'
p18
(dp19
s."
LayerCount: 2
Fore
SplineSet
565 -2 m 256
 676 -2 717 80 717 186 c 256
 717 294 677 374 565 374 c 256
 456 374 414 292 414 186 c 256
 414 80 454 -2 565 -2 c 256
566 49 m 256
 491 49 476 108 476 187 c 256
 476 264 491 322 566 322 c 256
 640 322 656 267 656 187 c 256
 656 110 640 49 566 49 c 256
137 0 m 257
 207 0 l 257
 608 714 l 257
 543 714 l 257
 137 0 l 257
181 349 m 256
 292 349 333 431 333 537 c 256
 333 645 293 724 181 724 c 256
 72 724 33 643 33 537 c 256
 33 431 70 349 181 349 c 256
182 400 m 256
 107 400 91 458 91 538 c 256
 91 615 107 673 182 673 c 256
 256 673 271 618 271 538 c 256
 271 461 256 400 182 400 c 256
EndSplineSet
EndChar

StartChar: period
Encoding: 46 46 307
Width: 309
VWidth: 0
GlyphClass: 2
Flags: HW
PickledData: "(dp1
S'org.pippin.gimp.org.kernagic'
p2
(dp3
S'lstem'
p4
I0
sS'rstem'
p5
I0
ssS'com.typemytype.robofont.layerData'
p6
(dp7
S'b'
(dp8
S'name'
p9
S'period'
p10
sS'lib'
p11
(dp12
sS'unicodes'
p13
(tsS'width'
p14
I624
sS'contours'
p15
(tsS'components'
p16
(tsS'anchors'
p17
(tsssS'org.robofab.postScriptHintData'
p18
(dp19
s."
LayerCount: 2
Fore
SplineSet
156 -5 m 256
 191 -5 208 16 208 55 c 256
 208 93 191 113 156 113 c 256
 119 113 104 93 104 55 c 256
 104 16 119 -5 156 -5 c 256
EndSplineSet
EndChar

StartChar: periodcentered
Encoding: 183 183 308
Width: 316
VWidth: 0
GlyphClass: 2
Flags: HW
PickledData: "(dp1
S'org.pippin.gimp.org.kernagic'
p2
(dp3
S'lstem'
p4
I0
sS'rstem'
p5
I0
ssS'com.typemytype.robofont.layerData'
p6
(dp7
S'b'
(dp8
S'name'
p9
S'periodcentered'
p10
sS'lib'
p11
(dp12
sS'unicodes'
p13
(tsS'width'
p14
I653
sS'contours'
p15
(tsS'components'
p16
(tsS'anchors'
p17
(tsssS'org.robofab.postScriptHintData'
p18
(dp19
s."
LayerCount: 2
Fore
SplineSet
163 248 m 256
 196 248 220 271 220 305 c 256
 220 338 196 360 163 360 c 256
 130 360 106 338 106 305 c 256
 106 271 130 248 163 248 c 256
EndSplineSet
EndChar

StartChar: perthousand
Encoding: 8240 8240 309
Width: 1142
VWidth: 0
GlyphClass: 2
Flags: HW
PickledData: "(dp1
S'org.pippin.gimp.org.kernagic'
p2
(dp3
S'lstem'
p4
I0
sS'rstem'
p5
I0
ssS'com.typemytype.robofont.layerData'
p6
(dp7
S'b'
(dp8
S'name'
p9
S'perthousand'
p10
sS'lib'
p11
(dp12
sS'unicodes'
p13
(tsS'width'
p14
I2251
sS'contours'
p15
(tsS'components'
p16
(tsS'anchors'
p17
(tsssS'org.robofab.postScriptHintData'
p18
(dp19
s."
LayerCount: 2
Fore
SplineSet
915 -2 m 256
 1026 -2 1066 80 1066 186 c 256
 1066 294 1027 374 915 374 c 256
 806 374 763 292 763 186 c 256
 763 80 804 -2 915 -2 c 256
916 49 m 256
 841 49 825 108 825 187 c 256
 825 264 841 322 916 322 c 256
 990 322 1005 267 1005 187 c 256
 1005 110 990 49 916 49 c 256
EndSplineSet
Refer: 306 37 N 1 0 0 1 7 0 2
EndChar

StartChar: pi
Encoding: 960 960 310
Width: 705
VWidth: 0
GlyphClass: 2
Flags: HW
PickledData: "(dp1
S'org.robofab.postScriptHintData'
p2
(dp3
sS'com.typemytype.robofont.layerData'
p4
(dp5
s."
LayerCount: 2
Fore
SplineSet
558 -6 m 256
 597 -6 629 5 646 22 c 257
 646 86 l 257
 632 81 605 69 584 69 c 256
 545 69 524 114 524 212 c 256
 524 268 530 350 542 442 c 257
 659 442 l 257
 659 528 l 257
 215 528 l 258
 96 528 60 484 60 376 c 257
 108 376 l 257
 114 414 133 442 173 442 c 258
 234 442 l 257
 203 194 l 258
 189 86 126 56 66 56 c 257
 66 2 l 257
 239 2 274 53 279 162 c 258
 292 442 l 257
 477 442 l 257
 461 329 441 216 441 137 c 256
 441 47 471 -6 558 -6 c 256
EndSplineSet
EndChar

StartChar: plus
Encoding: 43 43 311
Width: 557
VWidth: 0
GlyphClass: 2
Flags: HW
PickledData: "(dp1
S'org.pippin.gimp.org.kernagic'
p2
(dp3
S'lstem'
p4
I0
sS'rstem'
p5
I0
ssS'com.typemytype.robofont.layerData'
p6
(dp7
S'b'
(dp8
S'name'
p9
S'plus'
p10
sS'lib'
p11
(dp12
sS'unicodes'
p13
(tsS'width'
p14
I1136
sS'contours'
p15
(tsS'components'
p16
(tsS'anchors'
p17
(tsssS'org.robofab.postScriptHintData'
p18
(dp19
s."
LayerCount: 2
Fore
SplineSet
232 568 m 257
 232 383 l 257
 57 383 l 257
 57 299 l 257
 232 299 l 257
 232 111 l 257
 319 111 l 257
 319 299 l 257
 493 299 l 257
 493 383 l 257
 319 383 l 257
 319 568 l 257
 232 568 l 257
EndSplineSet
EndChar

StartChar: plusminus
Encoding: 177 177 312
Width: 554
VWidth: 0
GlyphClass: 2
Flags: HW
PickledData: "(dp1
S'org.pippin.gimp.org.kernagic'
p2
(dp3
S'lstem'
p4
I0
sS'rstem'
p5
I0
ssS'com.typemytype.robofont.layerData'
p6
(dp7
sS'org.robofab.postScriptHintData'
p8
(dp9
s."
LayerCount: 2
Fore
SplineSet
51 62 m 257
 51 0 l 257
 505 0 l 257
 505 62 l 257
 51 62 l 257
241 550 m 257
 241 363 l 257
 61 363 l 257
 61 300 l 257
 241 300 l 257
 241 108 l 257
 308 108 l 257
 308 300 l 257
 485 300 l 257
 485 363 l 257
 307 363 l 257
 307 550 l 257
 241 550 l 257
EndSplineSet
EndChar

StartChar: product
Encoding: 8719 8719 313
Width: 750
VWidth: 0
GlyphClass: 2
Flags: HW
PickledData: "(dp1
S'org.pippin.gimp.org.kernagic'
p2
(dp3
S'lstem'
p4
I0
sS'rstem'
p5
I0
ssS'com.typemytype.robofont.layerData'
p6
(dp7
S'b'
(dp8
S'name'
p9
S'product'
p10
sS'lib'
p11
(dp12
sS'unicodes'
p13
(tsS'width'
p14
I1533
sS'contours'
p15
(tsS'components'
p16
(tsS'anchors'
p17
(tsssS'org.robofab.postScriptHintData'
p18
(dp19
s."
LayerCount: 2
Fore
SplineSet
97 732 m 257
 97 0 l 257
 182 0 l 257
 182 659 l 257
 570 659 l 257
 570 0 l 257
 655 0 l 257
 655 732 l 257
 97 732 l 257
EndSplineSet
EndChar

StartChar: q
Encoding: 113 113 314
Width: 593
VWidth: 0
GlyphClass: 2
Flags: HW
PickledData: "(dp1
S'org.pippin.gimp.org.kernagic'
p2
(dp3
S'lstem'
p4
I0
sS'rstem'
p5
I0
ssS'com.typemytype.robofont.layerData'
p6
(dp7
sS'org.robofab.postScriptHintData'
p8
(dp9
s."
LayerCount: 2
Fore
SplineSet
294 56 m 256
 195 56 149 132 149 266 c 256
 149 395 196 474 293 474 c 256
 350 474 396 452 428 407 c 257
 428 114 l 257
 400 76 351 56 294 56 c 256
287 -10 m 256
 331 -10 387 2 427 43 c 257
 425 -11 l 257
 425 -224 l 257
 514 -224 l 257
 514 528 l 257
 439 528 l 257
 435 470 l 257
 405 510 356 540 288 540 c 256
 144 540 58 430 58 266 c 256
 58 101 138 -10 287 -10 c 256
EndSplineSet
EndChar

StartChar: question
Encoding: 63 63 315
Width: 450
VWidth: 0
GlyphClass: 2
Flags: HW
PickledData: "(dp1
S'org.pippin.gimp.org.kernagic'
p2
(dp3
S'lstem'
p4
I0
sS'rstem'
p5
I0
ssS'com.typemytype.robofont.layerData'
p6
(dp7
sS'org.robofab.postScriptHintData'
p8
(dp9
s."
LayerCount: 2
Fore
SplineSet
181 -7 m 256
 220 -7 238 20 238 51 c 256
 238 80 220 108 181 108 c 256
 141 108 123 80 123 51 c 256
 123 21 141 -7 181 -7 c 256
162 210 m 257
 202 209 l 257
 255 384 374 408 374 556 c 256
 374 676 294 725 205 725 c 256
 144 725 94 705 57 676 c 257
 75 609 l 257
 97 624 144 651 194 651 c 256
 255 651 289 617 289 549 c 256
 289 445 172 363 162 210 c 257
EndSplineSet
EndChar

StartChar: quotedbl
Encoding: 34 34 317
Width: 343
VWidth: 0
GlyphClass: 2
Flags: HW
PickledData: "(dp1
S'org.robofab.postScriptHintData'
p2
(dp3
sS'com.typemytype.robofont.layerData'
p4
(dp5
s."
LayerCount: 2
Fore
SplineSet
229 486 m 257
 273 486 l 257
 292 747 l 257
 199 747 l 257
 229 486 l 257
83 486 m 257
 126 486 l 257
 145 747 l 257
 52 747 l 257
 83 486 l 257
EndSplineSet
EndChar

StartChar: quotedblbase
Encoding: 8222 8222 318
Width: 373
VWidth: 0
GlyphClass: 2
Flags: HW
PickledData: "(dp1
S'org.robofab.postScriptHintData'
p2
(dp3
s."
LayerCount: 2
Fore
SplineSet
205 -153 m 257
 262 -153 l 257
 315 79 l 257
 228 79 l 257
 205 -153 l 257
53 -153 m 257
 112 -153 l 257
 164 79 l 257
 78 79 l 257
 53 -153 l 257
EndSplineSet
EndChar

StartChar: quotedblleft
Encoding: 8220 8220 319
Width: 442
VWidth: 0
GlyphClass: 2
Flags: HW
PickledData: "(dp1
S'org.robofab.postScriptHintData'
p2
(dp3
sS'com.typemytype.robofont.layerData'
p4
(dp5
s."
LayerCount: 2
Fore
SplineSet
250 498 m 257
 344 498 l 257
 367 734 l 257
 303 734 l 257
 250 498 l 257
77 498 m 257
 171 498 l 257
 194 734 l 257
 131 734 l 257
 77 498 l 257
EndSplineSet
EndChar

StartChar: quotedblright
Encoding: 8221 8221 320
Width: 442
VWidth: 0
GlyphClass: 2
Flags: HW
PickledData: "(dp1
S'org.robofab.postScriptHintData'
p2
(dp3
sS'com.typemytype.robofont.layerData'
p4
(dp5
s."
LayerCount: 2
Fore
SplineSet
77 498 m 257
 141 498 l 257
 194 734 l 257
 100 734 l 257
 77 498 l 257
250 498 m 257
 313 498 l 257
 367 734 l 257
 272 734 l 257
 250 498 l 257
EndSplineSet
EndChar

StartChar: quoteleft
Encoding: 8216 8216 321
Width: 256
VWidth: 0
GlyphClass: 2
Flags: HW
PickledData: "(dp1
S'org.robofab.postScriptHintData'
p2
(dp3
sS'com.typemytype.robofont.layerData'
p4
(dp5
s."
LayerCount: 2
Fore
SplineSet
194 734 m 257
 131 734 l 257
 77 498 l 257
 171 498 l 257
 194 734 l 257
EndSplineSet
EndChar

StartChar: quoteright
Encoding: 8217 8217 322
Width: 256
VWidth: 0
GlyphClass: 2
Flags: HW
PickledData: "(dp1
S'org.robofab.postScriptHintData'
p2
(dp3
sS'com.typemytype.robofont.layerData'
p4
(dp5
s."
LayerCount: 2
Fore
SplineSet
77 498 m 257
 141 498 l 257
 194 734 l 257
 100 734 l 257
 77 498 l 257
EndSplineSet
EndChar

StartChar: quotesinglbase
Encoding: 8218 8218 323
Width: 224
VWidth: 0
GlyphClass: 2
Flags: HW
PickledData: "(dp1
S'org.robofab.postScriptHintData'
p2
(dp3
s."
LayerCount: 2
Fore
SplineSet
48 -153 m 257
 108 -153 l 257
 163 79 l 257
 75 79 l 257
 48 -153 l 257
EndSplineSet
EndChar

StartChar: quotesingle
Encoding: 39 39 324
Width: 202
VWidth: 0
GlyphClass: 2
Flags: HW
PickledData: "(dp1
S'org.robofab.postScriptHintData'
p2
(dp3
s."
LayerCount: 2
Fore
SplineSet
74 467 m 257
 125 467 l 257
 139 734 l 257
 50 734 l 257
 74 467 l 257
EndSplineSet
EndChar

StartChar: r
Encoding: 114 114 325
Width: 382
VWidth: 0
GlyphClass: 2
Flags: HW
PickledData: "(dp1
S'org.pippin.gimp.org.kernagic'
p2
(dp3
S'lstem'
p4
I0
sS'rstem'
p5
I352
ssS'com.typemytype.robofont.layerData'
p6
(dp7
sS'com.fontlab.hintData'
p8
(dp9
S'vhints'
p10
((dp11
S'position'
p12
I193
sS'width'
p13
I122
s(dp14
g12
I193
sg13
I92
stp15
sS'hhints'
p16
((dp17
g12
I974
sg13
I94
stp18
ssS'org.robofab.postScriptHintData'
p19
(dp20
s."
HStem: 476 46
VStem: 94 60 94 45
AnchorPoint: "top" 227 528 basechar 0
AnchorPoint: "bot" 145 0 basechar 0
LayerCount: 2
Fore
SplineSet
84 0 m 257
 172 0 l 257
 172 300 l 258
 172 390 223 462 329 462 c 258
 330 462 l 257
 349 462 l 257
 355 532 l 257
 342 534 331 535 317 535 c 256
 257 535 201 505 165 418 c 257
 156 528 l 257
 84 528 l 257
 84 0 l 257
EndSplineSet
EndChar

StartChar: radical
Encoding: 8730 8730 327
Width: 565
VWidth: 0
GlyphClass: 2
Flags: HW
PickledData: "(dp1
S'org.pippin.gimp.org.kernagic'
p2
(dp3
S'lstem'
p4
I0
sS'rstem'
p5
I0
ssS'com.typemytype.robofont.layerData'
p6
(dp7
S'b'
(dp8
S'name'
p9
S'radical'
p10
sS'lib'
p11
(dp12
sS'unicodes'
p13
(tsS'width'
p14
I1136
sS'contours'
p15
(tsS'components'
p16
(tsS'anchors'
p17
(tsssS'org.robofab.postScriptHintData'
p18
(dp19
s."
LayerCount: 2
Fore
SplineSet
487 833 m 257
 427 583 352 279 293 29 c 257
 250 170 198 302 151 439 c 257
 24 409 l 257
 31 350 l 257
 104 365 l 257
 263 -80 l 257
 336 -80 l 257
 549 833 l 257
 487 833 l 257
EndSplineSet
EndChar

StartChar: registered
Encoding: 174 174 330
Width: 903
VWidth: 0
GlyphClass: 2
Flags: HW
PickledData: "(dp1
S'org.pippin.gimp.org.kernagic'
p2
(dp3
S'lstem'
p4
I0
sS'rstem'
p5
I0
ssS'com.typemytype.robofont.layerData'
p6
(dp7
sS'org.robofab.postScriptHintData'
p8
(dp9
s."
LayerCount: 2
Fore
SplineSet
448 -11 m 256
 632 -11 813 117 813 355 c 256
 813 593 632 722 448 722 c 256
 265 722 84 593 84 355 c 256
 84 117 265 -11 448 -11 c 256
448 33 m 256
 288 33 138 147 138 355 c 256
 138 563 288 678 448 678 c 256
 608 678 761 562 761 355 c 256
 761 147 608 33 448 33 c 256
364 399 m 257
 364 540 l 257
 449 540 l 258
 527 540 556 532 556 471 c 256
 556 419 533 399 465 399 c 258
 364 399 l 257
307 144 m 257
 363 144 l 257
 363 352 l 257
 461 352 l 257
 465 347 564 144 564 144 c 257
 627 144 l 257
 627 144 525 348 518 358 c 257
 582 366 611 409 611 474 c 256
 611 555 569 589 458 589 c 258
 307 589 l 257
 307 144 l 257
EndSplineSet
EndChar

StartChar: ring
Encoding: 730 730 331
Width: 347
VWidth: 0
GlyphClass: 4
Flags: HW
PickledData: "(dp1
S'org.robofab.postScriptHintData'
p2
(dp3
sS'com.typemytype.robofont.layerData'
p4
(dp5
s."
AnchorPoint: "top" 168 521 mark 0
LayerCount: 2
Fore
SplineSet
168 585 m 256
 223 585 263 626 263 676 c 256
 263 726 224 767 168 767 c 256
 113 767 75 726 75 676 c 256
 75 626 113 585 168 585 c 256
168 625 m 256
 140 625 122 648 122 676 c 256
 122 702 140 726 168 726 c 256
 196 726 216 702 216 676 c 256
 216 649 196 625 168 625 c 256
EndSplineSet
EndChar

StartChar: s
Encoding: 115 115 332
Width: 479
VWidth: 0
GlyphClass: 2
Flags: HW
PickledData: "(dp1
S'org.pippin.gimp.org.kernagic'
p2
(dp3
S'lstem'
p4
I168
sS'rstem'
p5
I620
ssS'com.typemytype.robofont.layerData'
p6
(dp7
sS'com.typemytype.robofont.guides'
p8
((dp9
S'y'
I381
sS'x'
I77
sS'magnetic'
p10
I5
sS'angle'
p11
F90
sS'isGlobal'
p12
I00
stp13
sS'com.fontlab.hintData'
p14
(dp15
S'vhints'
p16
((dp17
S'position'
p18
I142
sS'width'
p19
I107
s(dp20
g18
I738
sg19
I104
stp21
sS'hhints'
p22
((dp23
g18
I-19
sg19
I92
s(dp24
g18
I982
sg19
I92
stp25
ssS'org.robofab.postScriptHintData'
p26
(dp27
s."
HStem: -9 45 479 45
VStem: 69 52 360 51
AnchorPoint: "top" 248 529 basechar 0
AnchorPoint: "bot" 233 0 basechar 0
LayerCount: 2
Fore
SplineSet
353 150 m 256
 353 86 315 55 247 55 c 256
 198 55 137 70 95 119 c 257
 88 119 l 257
 42 74 l 257
 85 19 163 -10 247 -10 c 256
 350 -10 434 38 434 153 c 256
 434 212 415 262 289 303 c 257
 230 321 l 258
 158 344 144 361 144 397 c 256
 144 444 175 473 249 473 c 256
 306 473 347 452 371 423 c 257
 375 423 l 257
 424 463 l 257
 393 507 333 540 248 540 c 256
 130 540 57 486 57 398 c 256
 57 335 73 291 201 251 c 258
 261 232 l 258
 342 207 353 184 353 150 c 256
EndSplineSet
EndChar

StartChar: section
Encoding: 167 167 338
Width: 524
VWidth: 0
GlyphClass: 2
Flags: HW
PickledData: "(dp1
S'org.pippin.gimp.org.kernagic'
p2
(dp3
S'lstem'
p4
I0
sS'rstem'
p5
I0
ssS'com.typemytype.robofont.layerData'
p6
(dp7
S'b'
(dp8
S'name'
p9
S'section'
p10
sS'lib'
p11
(dp12
sS'unicodes'
p13
(tsS'width'
p14
I1079
sS'contours'
p15
(tsS'components'
p16
(tsS'anchors'
p17
(tsssS'org.robofab.postScriptHintData'
p18
(dp19
s."
LayerCount: 2
Fore
SplineSet
337 280 m 257
 324 286 306 292 242 312 c 256
 175 334 159 347 159 388 c 256
 159 416 168 435 190 448 c 257
 194 446 203 443 262 423 c 256
 336 399 357 374 357 338 c 256
 357 314 350 294 337 280 c 257
252 -10 m 256
 349 -10 431 33 431 143 c 256
 431 186 422 217 396 243 c 257
 417 267 431 299 431 341 c 256
 431 417 405 458 293 494 c 256
 176 532 162 544 162 584 c 256
 162 629 187 658 262 658 c 256
 315 658 363 639 392 624 c 257
 412 687 l 257
 367 710 314 724 253 724 c 256
 144 724 81 668 81 581 c 256
 81 541 92 508 125 482 c 257
 97 457 82 423 82 383 c 256
 82 320 107 279 204 247 c 256
 334 205 354 180 354 142 c 256
 354 87 319 56 260 56 c 258
 255 56 l 258
 200 56 148 74 92 101 c 257
 92 29 l 257
 141 5 199 -10 252 -10 c 256
EndSplineSet
EndChar

StartChar: semicolon
Encoding: 59 59 339
Width: 349
VWidth: 0
GlyphClass: 2
Flags: HW
PickledData: "(dp1
S'org.pippin.gimp.org.kernagic'
p2
(dp3
S'lstem'
p4
I0
sS'rstem'
p5
I0
ssS'com.typemytype.robofont.layerData'
p6
(dp7
sS'org.robofab.postScriptHintData'
p8
(dp9
s."
LayerCount: 2
Fore
SplineSet
182 406 m 256
 223 406 242 436 242 468 c 256
 242 500 223 530 182 530 c 256
 141 530 121 500 121 468 c 256
 121 436 141 406 182 406 c 256
121 -149 m 257
 173 -149 l 257
 230 72 l 257
 230 117 l 257
 141 117 l 257
 141 114 121 -149 121 -149 c 257
EndSplineSet
EndChar

StartChar: seven
Encoding: 55 55 340
Width: 615
VWidth: 0
GlyphClass: 2
Flags: HW
PickledData: "(dp1
S'org.pippin.gimp.org.kernagic'
p2
(dp3
S'lstem'
p4
I0
sS'rstem'
p5
I0
ssS'com.typemytype.robofont.layerData'
p6
(dp7
sS'org.robofab.postScriptHintData'
p8
(dp9
s."
LayerCount: 2
Fore
SplineSet
168 0 m 257
 259 0 l 257
 525 646 l 257
 525 711 l 257
 83 711 l 257
 92 639 l 257
 430 639 l 257
 168 0 l 257
EndSplineSet
EndChar

StartChar: six
Encoding: 54 54 341
Width: 615
VWidth: 0
GlyphClass: 2
Flags: HW
PickledData: "(dp1
S'org.pippin.gimp.org.kernagic'
p2
(dp3
S'lstem'
p4
I0
sS'rstem'
p5
I0
ssS'com.typemytype.robofont.layerData'
p6
(dp7
sS'org.robofab.postScriptHintData'
p8
(dp9
s."
LayerCount: 2
Fore
SplineSet
316 61 m 256
 221 61 170 132 170 215 c 256
 170 330 257 368 319 368 c 256
 411 368 463 304 463 217 c 256
 463 134 411 61 316 61 c 256
318 -10 m 256
 461 -10 551 91 551 217 c 256
 551 349 462 436 350 436 c 256
 291 436 248 412 217 385 c 257
 294 490 371 595 448 700 c 257
 448 711 l 257
 353 711 l 257
 187 484 l 258
 121 394 83 325 83 220 c 256
 83 99 169 -10 318 -10 c 256
EndSplineSet
EndChar

StartChar: slash
Encoding: 47 47 342
Width: 473
VWidth: 0
GlyphClass: 2
Flags: HW
PickledData: "(dp1
S'org.pippin.gimp.org.kernagic'
p2
(dp3
S'lstem'
p4
I0
sS'rstem'
p5
I0
ssS'com.typemytype.robofont.layerData'
p6
(dp7
S'b'
(dp8
S'name'
p9
S'slash'
p10
sS'lib'
p11
(dp12
sS'unicodes'
p13
(tsS'width'
p14
I965
sS'contours'
p15
(tsS'components'
p16
(tsS'anchors'
p17
(tsssS'org.robofab.postScriptHintData'
p18
(dp19
s."
LayerCount: 2
Fore
SplineSet
62 -71 m 257
 136 -71 l 257
 437 762 l 257
 362 762 l 257
 62 -71 l 257
EndSplineSet
EndChar

StartChar: slashbar
Encoding: 65541 -1 343
Width: 416
VWidth: 0
GlyphClass: 4
Flags: HW
PickledData: "(dp1
S'org.pippin.gimp.org.kernagic'
p2
(dp3
S'lstem'
p4
I0
sS'rstem'
p5
I0
ssS'com.typemytype.robofont.layerData'
p6
(dp7
S'b'
(dp8
S'name'
p9
S'slashbar'
p10
sS'lib'
p11
(dp12
sS'unicodes'
p13
(tsS'width'
p14
I908
sS'contours'
p15
(tsS'components'
p16
(tsS'anchors'
p17
(tsssS'org.robofab.postScriptHintData'
p18
(dp19
s."
LayerCount: 2
Fore
SplineSet
90 237 m 257
 379 396 l 257
 379 461 l 257
 90 302 l 257
 90 237 l 257
EndSplineSet
EndChar

StartChar: sterling
Encoding: 163 163 345
Width: 558
VWidth: 0
GlyphClass: 2
Flags: HW
PickledData: "(dp1
S'org.pippin.gimp.org.kernagic'
p2
(dp3
S'lstem'
p4
I0
sS'rstem'
p5
I0
ssS'com.typemytype.robofont.layerData'
p6
(dp7
S'b'
(dp8
S'name'
p9
S'sterling'
p10
sS'lib'
p11
(dp12
sS'unicodes'
p13
(tsS'width'
p14
I1136
sS'contours'
p15
((dp16
S'points'
p17
((dp18
S'segmentType'
p19
S'line'
p20
sS'x'
I20
sS'smooth'
p21
I00
sS'y'
I0
s(dp22
g19
S'line'
p23
sS'x'
I8
sg21
I00
sS'y'
I115
s(dp24
g19
S'line'
p25
sS'x'
I180
sg21
I00
sS'y'
I132
s(dp26
g19
S'line'
p27
sS'x'
I180
sg21
I00
sS'y'
I683
s(dp28
g19
S'line'
p29
sS'x'
I8
sg21
I00
sS'y'
I683
s(dp30
g19
S'line'
p31
sS'x'
I8
sg21
I00
sS'y'
I806
s(dp32
g19
S'line'
p33
sS'x'
I180
sg21
I00
sS'y'
I806
s(dp34
g19
S'line'
p35
sS'x'
I180
sg21
I01
sS'y'
I920
s(dp36
S'y'
I1183
sS'x'
I180
sg21
I00
s(dp37
S'y'
I1476
sS'x'
I245
sg21
I00
s(dp38
g19
S'curve'
p39
sS'x'
I598
sg21
I01
sS'y'
I1476
s(dp40
S'y'
I1476
sS'x'
I742
sg21
I00
s(dp41
S'y'
I1421
sS'x'
I854
sg21
I00
s(dp42
g19
S'curve'
p43
sS'x'
I939
sg21
I00
sS'y'
I1347
s(dp44
g19
S'line'
p45
sS'x'
I871
sg21
I00
sS'y'
I1229
s(dp46
S'y'
I1297
sS'x'
I785
sg21
I00
s(dp47
S'y'
I1334
sS'x'
I700
sg21
I00
s(dp48
g19
S'curve'
p49
sS'x'
I598
sg21
I01
sS'y'
I1334
s(dp50
S'y'
I1334
sS'x'
I397
sg21
I00
s(dp51
S'y'
I1179
sS'x'
I356
sg21
I00
s(dp52
g19
S'curve'
p53
sS'x'
I356
sg21
I01
sS'y'
I949
s(dp54
g19
S'line'
p55
sS'x'
I356
sg21
I00
sS'y'
I806
s(dp56
g19
S'line'
p57
sS'x'
I739
sg21
I00
sS'y'
I806
s(dp58
g19
S'line'
p59
sS'x'
I739
sg21
I00
sS'y'
I683
s(dp60
g19
S'line'
p61
sS'x'
I356
sg21
I00
sS'y'
I683
s(dp62
g19
S'line'
p63
sS'x'
I356
sg21
I00
sS'y'
I134
s(dp64
g19
S'line'
p65
sS'x'
I953
sg21
I00
sS'y'
I134
s(dp66
g19
S'line'
p67
sS'x'
I940
sg21
I00
sS'y'
I0
stp68
stp69
sS'components'
p70
(tsS'anchors'
p71
(tsssS'org.robofab.postScriptHintData'
p72
(dp73
s."
LayerCount: 2
Fore
SplineSet
214 467 m 258
 214 589 256 648 337 648 c 256
 391 648 422 625 456 598 c 257
 464 598 l 257
 497 657 l 257
 465 688 413 724 326 724 c 256
 164 724 120 599 120 467 c 258
 120 396 l 257
 35 396 l 257
 35 333 l 257
 120 333 l 257
 120 70 l 257
 36 61 l 257
 42 0 l 257
 496 0 l 257
 501 71 l 257
 214 71 l 257
 214 333 l 257
 398 333 l 257
 398 396 l 257
 214 396 l 257
 214 467 l 258
EndSplineSet
EndChar

StartChar: t
Encoding: 116 116 347
Width: 390
VWidth: 0
GlyphClass: 2
Flags: HW
PickledData: "(dp1
S'org.pippin.gimp.org.kernagic'
p2
(dp3
S'lstem'
p4
I189
sS'rstem'
p5
I480
ssS'com.typemytype.robofont.layerData'
p6
(dp7
sS'com.fontlab.hintData'
p8
(dp9
S'vhints'
p10
((dp11
S'position'
p12
I244
sS'width'
p13
I122
s(dp14
g12
I286
sg13
I80
stp15
sS'hhints'
p16
((dp17
g12
I-11
sg13
I83
stp18
ssS'org.robofab.postScriptHintData'
p19
(dp20
s."
HStem: -5 41
VStem: 119 60 140 39
AnchorPoint: "top" 163 673 basechar 0
AnchorPoint: "bot" 232 0 basechar 0
LayerCount: 2
Fore
SplineSet
286 -4 m 258
 335 -4 l 257
 339 59 l 257
 286 61 l 258
 207 64 202 80 202 163 c 258
 202 474 l 257
 342 474 l 257
 342 528 l 257
 202 528 l 257
 202 676 l 257
 128 671 l 257
 115 528 l 257
 32 523 l 257
 29 474 l 257
 113 474 l 257
 113 163 l 258
 113 37 136 -4 286 -4 c 258
EndSplineSet
EndChar

StartChar: thorn
Encoding: 254 254 351
Width: 591
VWidth: 0
GlyphClass: 2
Flags: HW
PickledData: "(dp1
S'org.pippin.gimp.org.kernagic'
p2
(dp3
S'lstem'
p4
I0
sS'rstem'
p5
I0
ssS'com.typemytype.robofont.layerData'
p6
(dp7
S'b'
(dp8
S'name'
p9
S'thorn'
p10
sS'lib'
p11
(dp12
sS'unicodes'
p13
(tsS'width'
p14
I1221
sS'contours'
p15
(tsS'components'
p16
(tsS'anchors'
p17
(tsssS'org.robofab.postScriptHintData'
p18
(dp19
s."
LayerCount: 2
Fore
SplineSet
54 166 m 257
 54 -225 l 257
 140 -225 l 257
 140 166 l 257
 54 166 l 257
EndSplineSet
Refer: 152 98 N 1 0 0 1 -26 0 2
EndChar

StartChar: three
Encoding: 51 51 352
Width: 608
VWidth: 0
GlyphClass: 2
Flags: HW
PickledData: "(dp1
S'org.pippin.gimp.org.kernagic'
p2
(dp3
S'lstem'
p4
I0
sS'rstem'
p5
I0
ssS'com.typemytype.robofont.layerData'
p6
(dp7
sS'org.robofab.postScriptHintData'
p8
(dp9
s."
LayerCount: 2
Fore
SplineSet
377 376 m 257
 467 397 509 456 509 536 c 256
 509 648 434 721 305 721 c 256
 239 721 131 700 83 600 c 257
 134 559 l 257
 144 559 l 257
 183 622 235 646 297 646 c 258
 305 646 l 258
 384 646 422 603 422 535 c 258
 422 528 l 258
 422 423 325 409 246 409 c 258
 209 409 l 257
 221 336 l 257
 245 336 l 258
 371 336 440 303 440 191 c 256
 440 105 379 65 301 65 c 256
 252 65 183 82 144 145 c 257
 137 145 l 257
 85 103 l 257
 133 19 226 -10 302 -10 c 256
 448 -10 529 81 529 188 c 256
 529 285 477 358 377 376 c 257
EndSplineSet
EndChar

StartChar: threequarters
Encoding: 190 190 353
Width: 854
VWidth: 0
GlyphClass: 3
Flags: HW
PickledData: "(dp1
S'org.pippin.gimp.org.kernagic'
p2
(dp3
S'lstem'
p4
I0
sS'rstem'
p5
I0
ssS'com.typemytype.robofont.layerData'
p6
(dp7
sS'org.robofab.postScriptHintData'
p8
(dp9
s."
LayerCount: 2
Fore
SplineSet
576 146 m 257
 702 335 l 257
 702 146 l 257
 576 146 l 257
209 0 m 257
 278 0 l 257
 725 722 l 257
 657 722 l 257
 209 0 l 257
702 0 m 257
 766 0 l 257
 766 93 l 257
 825 93 l 257
 822 146 l 257
 767 146 l 257
 767 419 l 257
 697 419 l 257
 506 141 l 257
 506 93 l 257
 702 93 l 257
 702 0 l 257
174 289 m 256
 246 289 313 330 313 417 c 256
 313 464 284 504 234 519 c 257
 285 531 304 580 304 615 c 256
 304 688 244 721 178 721 c 256
 136 721 92 707 59 681 c 257
 83 635 l 257
 116 655 148 664 174 664 c 256
 212 664 238 644 238 605 c 256
 238 566 209 542 162 542 c 258
 116 542 l 257
 116 486 l 257
 163 486 l 257
 220 486 248 463 248 416 c 256
 248 367 215 347 174 347 c 256
 145 347 111 357 82 375 c 257
 59 326 l 257
 92 302 134 289 174 289 c 256
EndSplineSet
Ligature2: "fracDiagonalFractionslookup11 subtable" three slash four
EndChar

StartChar: tilde
Encoding: 732 732 354
Width: 483
VWidth: 0
GlyphClass: 4
Flags: HW
PickledData: "(dp1
S'org.robofab.postScriptHintData'
p2
(dp3
sS'com.typemytype.robofont.layerData'
p4
(dp5
sS'com.fontlab.hintData'
p6
(dp7
S'vhints'
p8
((dp9
S'position'
p10
I169
sS'width'
p11
I63
s(dp12
g10
I657
sg11
I67
stp13
sS'hhints'
p14
((dp15
g10
I1301
sg11
I88
s(dp16
g10
I1400
sg11
I79
stp17
ss."
HStem: 635 43 684 39
VStem: 83 31 321 33
AnchorPoint: "top" 241 521 mark 0
LayerCount: 2
Fore
SplineSet
84 632 m 257
 130 632 l 257
 134 667 146 680 163 680 c 256
 199 680 257 632 308 632 c 256
 353 632 382 669 382 736 c 257
 335 736 l 257
 331 704 321 693 306 693 c 256
 276 693 225 736 166 736 c 256
 115 736 84 699 84 632 c 257
EndSplineSet
EndChar

StartChar: trademark
Encoding: 8482 8482 355
Width: 1074
VWidth: 0
GlyphClass: 2
Flags: HW
PickledData: "(dp1
S'org.robofab.postScriptHintData'
p2
(dp3
sS'com.typemytype.robofont.layerData'
p4
(dp5
S'b'
(dp6
S'name'
p7
S'trademark'
p8
sS'lib'
p9
(dp10
sS'unicodes'
p11
(tsS'width'
p12
I2216
sS'contours'
p13
(tsS'components'
p14
(tsS'anchors'
p15
(tsss."
LayerCount: 2
Fore
SplineSet
191 255 m 257
 262 255 l 257
 262 653 l 257
 415 653 l 257
 415 711 l 257
 40 711 l 257
 40 653 l 257
 191 653 l 257
 191 255 l 257
476 255 m 257
 540 255 l 257
 542 619 l 257
 690 309 l 257
 741 309 l 257
 889 615 l 257
 893 255 l 257
 956 255 l 257
 947 711 l 257
 875 711 l 257
 716 388 l 257
 559 711 l 257
 484 711 l 257
 476 255 l 257
EndSplineSet
EndChar

StartChar: two
Encoding: 50 50 356
Width: 615
VWidth: 0
GlyphClass: 2
Flags: HW
PickledData: "(dp1
S'org.pippin.gimp.org.kernagic'
p2
(dp3
S'lstem'
p4
I0
sS'rstem'
p5
I0
ssS'com.typemytype.robofont.layerData'
p6
(dp7
sS'org.robofab.postScriptHintData'
p8
(dp9
s."
LayerCount: 2
Fore
SplineSet
130 580 m 257
 167 622 230 646 290 646 c 256
 365 646 434 607 434 515 c 256
 434 437 404 404 335 337 c 258
 71 78 l 257
 85 0 l 257
 507 0 l 257
 511 74 l 257
 175 74 l 257
 389 279 l 258
 485 371 520 418 520 517 c 256
 520 653 415 721 292 721 c 256
 209 721 127 688 78 632 c 257
 121 580 l 257
 130 580 l 257
EndSplineSet
EndChar

StartChar: u
Encoding: 117 117 357
Width: 592
VWidth: 0
GlyphClass: 2
Flags: HW
PickledData: "(dp1
S'org.pippin.gimp.org.kernagic'
p2
(dp3
S'lstem'
p4
I0
sS'rstem'
p5
I0
ssS'com.typemytype.robofont.layerData'
p6
(dp7
sS'com.fontlab.hintData'
p8
(dp9
S'vhints'
p10
((dp11
S'position'
p12
I162
sS'width'
p13
I166
s(dp14
g12
I862
sg13
I166
stp15
sS'hhints'
p16
((dp17
g12
I-21
sg13
I126
stp18
ssS'org.robofab.postScriptHintData'
p19
(dp20
s."
HStem: -10 62
VStem: 79 81 421 81
AnchorPoint: "top" 304 529 basechar 0
AnchorPoint: "bot" 278 0 basechar 0
LayerCount: 2
Fore
SplineSet
423 126 m 257
 403 100 360 55 277 55 c 256
 194 55 164 108 164 199 c 258
 164 528 l 257
 75 528 l 257
 75 197 l 258
 75 59 140 -10 265 -10 c 256
 343 -10 395 22 430 66 c 257
 435 0 l 257
 511 0 l 257
 511 528 l 257
 423 528 l 257
 423 126 l 257
EndSplineSet
EndChar

StartChar: underscore
Encoding: 95 95 365
Width: 442
VWidth: 0
GlyphClass: 2
Flags: HW
PickledData: "(dp1
S'org.pippin.gimp.org.kernagic'
p2
(dp3
S'lstem'
p4
I0
sS'rstem'
p5
I0
ssS'com.typemytype.robofont.layerData'
p6
(dp7
sS'org.robofab.postScriptHintData'
p8
(dp9
s."
LayerCount: 2
Fore
SplineSet
0 -128 m 257
 442 -128 l 257
 442 -65 l 257
 0 -65 l 257
 0 -128 l 257
EndSplineSet
EndChar

StartChar: uni00AD
Encoding: 173 173 367
Width: 429
VWidth: 0
GlyphClass: 2
Flags: HW
PickledData: "(dp1
S'org.robofab.postScriptHintData'
p2
(dp3
s."
LayerCount: 2
Fore
SplineSet
51 241 m 257
 378 241 l 257
 378 311 l 257
 51 311 l 257
 51 241 l 257
EndSplineSet
EndChar

StartChar: uni00B2
Encoding: 178 178 368
Width: 383
VWidth: 0
GlyphClass: 2
Flags: HW
PickledData: "(dp1
S'org.robofab.postScriptHintData'
p2
(dp3
sS'com.typemytype.robofont.layerData'
p4
(dp5
s."
LayerCount: 2
Fore
SplineSet
74 316 m 257
 325 316 l 257
 330 368 l 257
 165 368 l 257
 218 419 221 420 260 459 c 256
 305 505 330 548 330 604 c 256
 330 687 267 733 199 733 c 256
 135 733 88 710 55 667 c 257
 85 625 l 257
 111 658 148 677 195 677 c 256
 237 677 268 647 268 603 c 256
 268 575 245 540 213 502 c 256
 151 433 125 419 74 368 c 257
 74 316 l 257
EndSplineSet
EndChar

StartChar: uni00B3
Encoding: 179 179 369
Width: 427
VWidth: 0
GlyphClass: 2
Flags: HW
PickledData: "(dp1
S'org.robofab.postScriptHintData'
p2
(dp3
sS'com.typemytype.robofont.layerData'
p4
(dp5
s."
LayerCount: 2
Fore
SplineSet
213 307 m 256
 288 307 356 346 356 427 c 256
 356 480 323 518 277 529 c 257
 324 540 351 576 351 624 c 256
 351 701 290 731 222 731 c 256
 169 731 117 715 84 686 c 257
 108 646 l 257
 135 668 171 682 214 682 c 256
 259 682 293 662 293 619 c 256
 293 579 270 552 209 552 c 258
 153 552 l 257
 153 504 l 257
 208 504 l 257
 210 504 l 258
 268 504 299 474 299 429 c 256
 299 381 260 357 212 357 c 256
 167 357 130 373 107 395 c 257
 82 349 l 257
 114 322 163 307 213 307 c 256
EndSplineSet
EndChar

StartChar: uni00B9
Encoding: 185 185 371
Width: 431
VWidth: 0
GlyphClass: 2
Flags: HW
PickledData: "(dp1
S'org.robofab.postScriptHintData'
p2
(dp3
sS'com.typemytype.robofont.layerData'
p4
(dp5
s."
LayerCount: 2
Fore
SplineSet
128 307 m 257
 361 307 l 257
 361 362 l 257
 280 362 l 257
 280 726 l 257
 226 726 l 257
 208 711 151 684 125 674 c 257
 125 619 l 257
 141 622 192 644 211 655 c 257
 211 362 l 257
 128 362 l 257
 128 307 l 257
EndSplineSet
EndChar

StartChar: uni02C9
Encoding: 713 713 436
Width: 292
VWidth: 0
GlyphClass: 4
Flags: HW
PickledData: "(dp1
S'org.robofab.postScriptHintData'
p2
(dp3
s."
AnchorPoint: "top" 150 521 mark 0
LayerCount: 2
Fore
SplineSet
-4 643 m 257
 294 643 l 257
 294 707 l 257
 -4 707 l 257
 -4 643 l 257
EndSplineSet
EndChar

StartChar: uni0307
Encoding: 775 775 437
Width: 213
VWidth: 0
GlyphClass: 4
Flags: HW
PickledData: "(dp1
S'org.robofab.postScriptHintData'
p2
(dp3
sS'com.typemytype.robofont.layerData'
p4
(dp5
s."
LayerCount: 2
Fore
SplineSet
171 709 m 256
 171 746 149 767 109 767 c 256
 69 767 47 746 47 709 c 256
 47 671 69 649 109 649 c 256
 149 649 171 671 171 709 c 256
EndSplineSet
EndChar

StartChar: uni2074
Encoding: 8308 8308 456
Width: 342
VWidth: 0
GlyphClass: 2
Flags: HW
PickledData: "(dp1
S'org.robofab.postScriptHintData'
p2
(dp3
sS'com.typemytype.robofont.layerData'
p4
(dp5
s."
LayerCount: 2
Fore
SplineSet
88 454 m 257
 200 647 l 257
 200 454 l 257
 88 454 l 257
200 303 m 257
 261 303 l 257
 260 404 l 257
 316 404 l 257
 319 454 l 257
 261 454 l 257
 261 727 l 257
 196 727 l 257
 23 457 l 257
 23 404 l 257
 200 404 l 257
 200 303 l 257
EndSplineSet
EndChar

StartChar: uni2113
Encoding: 8467 8467 457
Width: 594
VWidth: 0
GlyphClass: 2
Flags: HW
PickledData: "(dp1
S'org.robofab.postScriptHintData'
p2
(dp3
s."
LayerCount: 2
Fore
SplineSet
309 393 m 257
 356 575 l 258
 377 659 385 729 442 746 c 256
 453 749 463 751 472 751 c 256
 518 751 538 712 538 676 c 256
 538 593 489 536 411 474 c 258
 309 393 l 257
148 129 m 256
 148 31 198 -10 274 -10 c 256
 385 -10 459 48 459 48 c 257
 447 108 l 257
 397 81 353 65 313 65 c 256
 271 65 251 87 251 132 c 256
 251 152 255 176 262 204 c 258
 288 307 l 257
 431 422 l 258
 550 517 597 574 597 677 c 256
 597 778 525 825 450 825 c 256
 384 825 315 792 285 682 c 258
 185 312 l 257
 39 202 l 257
 61 163 l 257
 166 241 l 257
 154 198 148 160 148 129 c 256
EndSplineSet
EndChar

StartChar: Delta
Encoding: 8710 8710 459
Width: 626
VWidth: 0
GlyphClass: 2
Flags: HW
PickledData: "(dp1
S'org.pippin.gimp.org.kernagic'
p2
(dp3
S'lstem'
p4
I0
sS'rstem'
p5
I0
ssS'com.typemytype.robofont.layerData'
p6
(dp7
S'b'
(dp8
S'name'
p9
S'uni2206'
p10
sS'lib'
p11
(dp12
sS'unicodes'
p13
(tsS'width'
p14
I1278
sS'contours'
p15
(tsS'components'
p16
(tsS'anchors'
p17
(tsssS'org.robofab.postScriptHintData'
p18
(dp19
s."
LayerCount: 2
Fore
SplineSet
328 584 m 257
 499 85 l 257
 128 85 l 257
 296 584 l 257
 312 642 l 257
 328 584 l 257
268 753 m 257
 32 42 l 257
 32 0 l 257
 595 0 l 257
 595 42 l 257
 359 753 l 257
 268 753 l 257
EndSplineSet
EndChar

StartChar: v
Encoding: 118 118 470
Width: 527
VWidth: 0
GlyphClass: 2
Flags: HW
PickledData: "(dp1
S'org.pippin.gimp.org.kernagic'
p2
(dp3
S'lstem'
p4
I0
sS'rstem'
p5
I0
ssS'com.typemytype.robofont.guides'
p6
((dp7
S'y'
I552
sS'x'
I438
sS'magnetic'
p8
I5
sS'angle'
p9
I0
sS'isGlobal'
p10
I00
stp11
sS'com.typemytype.robofont.layerData'
p12
(dp13
sS'org.robofab.postScriptHintData'
p14
(dp15
s."
LayerCount: 2
Fore
SplineSet
221 0 m 257
 312 0 l 257
 500 528 l 257
 411 528 l 257
 364 386 316 246 268 104 c 257
 218 244 169 386 121 528 c 257
 30 528 l 257
 221 0 l 257
EndSplineSet
EndChar

StartChar: w
Encoding: 119 119 471
Width: 736
VWidth: 0
GlyphClass: 2
Flags: HW
PickledData: "(dp1
S'org.pippin.gimp.org.kernagic'
p2
(dp3
S'lstem'
p4
I0
sS'rstem'
p5
I0
ssS'com.typemytype.robofont.layerData'
p6
(dp7
sS'org.robofab.postScriptHintData'
p8
(dp9
s."
AnchorPoint: "top" 371 528 basechar 0
LayerCount: 2
Fore
SplineSet
371 443 m 257
 507 -0 l 257
 587 -0 l 257
 725 528 l 257
 644 528 l 257
 545 115 l 257
 416 528 l 257
 323 528 l 257
 201 116 l 257
 95 528 l 257
 12 528 l 257
 156 -0 l 257
 236 -0 l 257
 371 443 l 257
EndSplineSet
EndChar

StartChar: x
Encoding: 120 120 476
Width: 516
VWidth: 0
GlyphClass: 2
Flags: HW
PickledData: "(dp1
S'org.pippin.gimp.org.kernagic'
p2
(dp3
S'lstem'
p4
I0
sS'rstem'
p5
I0
ssS'com.typemytype.robofont.layerData'
p6
(dp7
sS'com.fontlab.hintData'
p8
(dp9
S'hhints'
p10
((dp11
S'position'
p12
I0
sS'width'
p13
I22
s(dp14
g12
I1034
sg13
I21
stp15
ssS'org.robofab.postScriptHintData'
p16
(dp17
s."
HStem: 0 11 505 10
LayerCount: 2
Fore
SplineSet
309 269 m 257
 487 528 l 257
 398 528 l 257
 266 332 l 257
 135 528 l 257
 36 528 l 257
 211 268 l 257
 25 -0 l 257
 115 -0 l 257
 253 205 l 257
 391 -0 l 257
 489 -0 l 257
 309 269 l 257
EndSplineSet
EndChar

StartChar: y
Encoding: 121 121 477
Width: 552
VWidth: 0
GlyphClass: 2
Flags: HW
PickledData: "(dp1
S'org.pippin.gimp.org.kernagic'
p2
(dp3
S'lstem'
p4
I0
sS'rstem'
p5
I0
ssS'com.typemytype.robofont.layerData'
p6
(dp7
sS'org.robofab.postScriptHintData'
p8
(dp9
s."
AnchorPoint: "top" 284 528 basechar 0
LayerCount: 2
Fore
SplineSet
529 528 m 257
 443 528 l 257
 283 119 l 257
 112 528 l 257
 19 528 l 257
 239 21 l 257
 161 -183 l 257
 237 -202 l 257
 529 528 l 257
EndSplineSet
EndChar

StartChar: yen
Encoding: 165 165 481
Width: 666
VWidth: 0
GlyphClass: 2
Flags: HW
PickledData: "(dp1
S'org.pippin.gimp.org.kernagic'
p2
(dp3
S'lstem'
p4
I0
sS'rstem'
p5
I0
ssS'com.typemytype.robofont.layerData'
p6
(dp7
S'b'
(dp8
S'name'
p9
S'yen'
p10
sS'lib'
p11
(dp12
sS'unicodes'
p13
(tsS'width'
p14
I1366
sS'contours'
p15
(tsS'components'
p16
(tsS'anchors'
p17
(tsssS'org.robofab.postScriptHintData'
p18
(dp19
s."
LayerCount: 2
Fore
SplineSet
126 249 m 257
 528 249 l 257
 528 303 l 257
 126 303 l 257
 126 249 l 257
126 125 m 257
 528 125 l 257
 528 179 l 257
 126 179 l 257
 126 125 l 257
EndSplineSet
Refer: 121 89 N 1 0 0 1 0 0 2
EndChar

StartChar: z
Encoding: 122 122 483
Width: 494
VWidth: 0
GlyphClass: 2
Flags: HW
PickledData: "(dp1
S'org.pippin.gimp.org.kernagic'
p2
(dp3
S'lstem'
p4
I0
sS'rstem'
p5
I0
ssS'com.typemytype.robofont.layerData'
p6
(dp7
sS'org.robofab.postScriptHintData'
p8
(dp9
s."
AnchorPoint: "top" 250 528 basechar 0
AnchorPoint: "bot" 235 0 basechar 0
LayerCount: 2
Fore
SplineSet
59 528 m 257
 62 465 l 257
 341 465 l 257
 49 57 l 257
 49 0 l 257
 439 0 l 257
 436 66 l 257
 148 66 l 257
 434 468 l 257
 434 528 l 257
 59 528 l 257
EndSplineSet
EndChar

StartChar: zero
Encoding: 48 48 487
Width: 615
VWidth: 0
GlyphClass: 2
Flags: HW
PickledData: "(dp1
S'org.pippin.gimp.org.kernagic'
p2
(dp3
S'lstem'
p4
I0
sS'rstem'
p5
I0
ssS'com.typemytype.robofont.layerData'
p6
(dp7
S'b'
(dp8
S'name'
p9
S'zero'
p10
sS'lib'
p11
(dp12
sS'unicodes'
p13
(tsS'width'
p14
I1248
sS'contours'
p15
(tsS'components'
p16
(tsS'anchors'
p17
(tsssS'org.robofab.postScriptHintData'
p18
(dp19
s."
LayerCount: 2
Fore
SplineSet
310 -10 m 256
 479 -10 551 127 551 344 c 256
 551 572 472 721 310 721 c 256
 148 721 64 572 64 344 c 256
 64 127 141 -10 310 -10 c 256
310 66 m 256
 214 66 155 145 155 347 c 256
 155 540 214 646 310 646 c 256
 405 646 460 553 460 347 c 256
 460 144 405 66 310 66 c 256
EndSplineSet
EndChar

StartChar: Sigma
Encoding: 931 931 489
Width: 519
VWidth: 0
GlyphClass: 2
Flags: HW
LayerCount: 2
Fore
SplineSet
42 711 m 257
 42 659 l 257
 278 304 l 257
 32 -47 l 257
 32 -97 l 257
 506 -97 l 257
 506 -18 l 257
 151 -18 l 257
 382 302 l 257
 161 636 l 257
 484 636 l 257
 484 711 l 257
 42 711 l 257
EndSplineSet
EndChar

StartChar: uni03BC
Encoding: 956 956 490
Width: 584
VWidth: 0
GlyphClass: 2
Flags: HW
LayerCount: 2
Fore
SplineSet
423 126 m 257
 403 100 360 55 277 55 c 256
 194 55 164 108 164 199 c 258
 164 528 l 257
 75 528 l 257
 75 -141 l 257
 164 -141 l 257
 164 11 l 257
 191 -3 225 -10 265 -10 c 256
 343 -10 395 22 430 66 c 257
 435 0 l 257
 511 0 l 257
 511 528 l 257
 423 528 l 257
 423 126 l 257
EndSplineSet
EndChar

StartChar: emptyset
Encoding: 8709 8709 491
Width: 819
VWidth: 0
GlyphClass: 2
Flags: HW
LayerCount: 2
Fore
SplineSet
55 358 m 256
 55 562 224 719 406 719 c 256
 491 719 574 685 637 628 c 257
 723 725 l 257
 741 711 l 257
 653 612 l 257
 716 548 758 459 758 358 c 256
 758 154 588 -3 406 -3 c 256
 323 -3 243 29 180 84 c 257
 86 -21 l 257
 71 -7 l 257
 165 99 l 257
 99 164 55 255 55 358 c 256
194 100 m 257
 253 49 328 18 406 18 c 256
 577 18 737 167 737 358 c 256
 737 452 699 536 639 597 c 257
 194 100 l 257
179 114 m 257
 623 612 l 257
 563 666 486 698 406 698 c 256
 235 698 76 549 76 358 c 256
 76 261 117 175 179 114 c 257
EndSplineSet
EndChar

StartChar: uni03A9
Encoding: 937 937 492
Width: 782
VWidth: 0
GlyphClass: 2
Flags: HW
LayerCount: 2
Fore
SplineSet
60 0 m 257
 53 57 l 257
 229 57 l 257
 131 125 60 236 60 377 c 256
 60 577 204 707 398 707 c 256
 599 707 726 564 726 376 c 256
 726 232 640 123 554 57 c 257
 728 57 l 257
 722 0 l 257
 475 0 l 257
 474 54 l 257
 575 121 649 231 649 367 c 256
 649 516 564 644 396 644 c 256
 243 644 136 534 136 369 c 256
 136 234 206 121 310 54 c 257
 310 0 l 257
 60 0 l 257
EndSplineSet
EndChar

StartChar: uni0358
Encoding: 856 856 493
Width: 213
VWidth: 0
GlyphClass: 4
Flags: HW
LayerCount: 2
Fore
SplineSet
171 709 m 256
 171 746 149 767 109 767 c 256
 69 767 47 746 47 709 c 256
 47 671 69 649 109 649 c 256
 149 649 171 671 171 709 c 256
EndSplineSet
EndChar

StartChar: uni0259
Encoding: 601 601 494
Width: 558
VWidth: 0
GlyphClass: 2
Flags: HW
PickledData: "(dp1
S'com.fontlab.hintData'
p2
(dp3
S'hhints'
p4
((dp5
S'position'
p6
I1011
sS'width'
p7
I94
s(dp8
g6
I12
sg7
I92
stp9
ss."
HStem: 494 46 6 45
LayerCount: 2
Fore
SplineSet
422 224 m 257
 413 120 353 56 268 56 c 256
 184 56 143 118 142 224 c 257
 422 224 l 257
70 282 m 257
 70 281 66 243 66 228 c 256
 66 82 143 -10 272 -10 c 256
 405 -10 514 92 514 268 c 256
 514 437 404 540 261 540 c 256
 187 540 124 518 81 488 c 257
 101 430 l 257
 107 430 l 257
 150 455 189 474 250 474 c 256
 345 474 415 417 423 282 c 257
 70 282 l 257
EndSplineSet
EndChar
